<?xml version="1.0" encoding="UTF-8" standalone="no"?><!DOCTYPE svg PUBLIC "-//W3C//DTD SVG 1.1//EN" "http://www.w3.org/Graphics/SVG/1.1/DTD/svg11.dtd"><svg width="100%" height="100%" viewBox="0 0 189 189" version="1.1" xmlns="http://www.w3.org/2000/svg" xmlns:xlink="http://www.w3.org/1999/xlink" xml:space="preserve" xmlns:serif="http://www.serif.com/" style="fill-rule:evenodd;clip-rule:evenodd;stroke-linejoin:round;stroke-miterlimit:1.41421;"><path d="M127.812,142.14c-0.039,-0.937 -0.056,-2.411 -0.056,-3.718c0,-8.489 1.492,-14.75 4.681,-18.159c1.646,-0.336 3.544,-1.049 4.602,-1.662c1.637,-2.228 6.672,-13.034 6.672,-19.13c0,-5.73 -3.855,-9.537 -10.383,-9.537c-2.161,0 -6.663,0.736 -8.712,1.294c-1.111,-2.544 -3.599,-4.19 -7.977,-4.19c-4.991,0 -13.577,2.563 -13.577,5.104c0,0.614 0.49,0.935 0.996,0.935c0.393,0 2.642,-0.548 5.048,-0.548c3.684,0 5.75,1.795 5.75,7.01c0,12.033 -4.813,24.257 -12.19,24.257c-2.991,0 -5.926,-1.677 -5.926,-7.144c1.51,-0.147 5.76,-1.091 7.475,-2.617l-6.526,-23.97c3.048,-1.254 5.195,-4.252 5.195,-7.753c0,-3.884 -2.641,-7.153 -6.227,-8.105c0,-0.255 -0.044,-0.33 -0.081,-0.491c-0.037,-0.158 -1.112,-5.086 -1.112,-5.331c0.247,0 5.295,1.072 5.456,1.109c0.162,0.036 0.256,0.082 0.512,0.082c0.965,0 1.746,-1.266 1.746,-2.157c0,-0.888 -0.781,-2.154 -1.746,-2.154c-0.256,0 -0.35,0.044 -0.512,0.082c-0.161,0.035 -5.209,1.112 -5.456,1.112c0,-0.247 1.075,-4.787 1.112,-4.947c0.037,-0.161 0.081,-0.256 0.081,-0.513c0,-0.965 -1.27,-1.746 -2.158,-1.746c-0.89,0 -2.156,0.781 -2.156,1.746c0,0.257 0.044,0.352 0.082,0.513c0.035,0.16 1.109,4.7 1.109,4.947c-0.245,0 -5.294,-1.077 -5.455,-1.112c-0.16,-0.038 -0.255,-0.082 -0.511,-0.082c-0.964,0 -1.746,1.266 -1.746,2.154c0,0.891 0.782,2.157 1.746,2.157c0.256,0 0.351,-0.046 0.511,-0.082c0.161,-0.037 5.21,-1.109 5.455,-1.109c0,0.245 -1.074,5.173 -1.109,5.331c-0.038,0.161 -0.082,0.236 -0.082,0.491c-3.586,0.952 -6.227,4.221 -6.227,8.105c0,3.501 2.147,6.499 5.194,7.753l-6.525,23.97c1.715,1.526 5.965,2.47 7.476,2.617c0,5.467 -2.935,7.144 -5.928,7.144c-7.375,0 -12.188,-12.224 -12.188,-24.257c0,-5.215 2.065,-7.01 5.75,-7.01c2.405,0 4.655,0.548 5.05,0.548c0.505,0 0.994,-0.321 0.994,-0.935c0,-2.541 -8.585,-5.104 -13.576,-5.104c-4.379,0 -6.868,1.646 -7.979,4.19c-2.048,-0.558 -6.55,-1.294 -8.711,-1.294c-6.529,0 -10.385,3.807 -10.385,9.537c0,6.096 5.037,16.902 6.675,19.13c1.057,0.613 2.952,1.326 4.601,1.662c3.187,3.409 4.681,9.67 4.681,18.159c0,1.307 -0.019,2.781 -0.056,3.718l-58.459,0l0,-3.508c0,-50.684 41.086,-91.772 91.769,-91.772c50.683,0 91.771,41.088 91.771,91.772l0,3.508l-58.458,0Z" style="fill:#a71e3b;fill-rule:nonzero;"/></svg>