<?xml version="1.0" encoding="UTF-8" standalone="no"?><!DOCTYPE svg PUBLIC "-//W3C//DTD SVG 1.1//EN" "http://www.w3.org/Graphics/SVG/1.1/DTD/svg11.dtd"><svg width="100%" height="100%" viewBox="0 0 76 76" version="1.1" xmlns="http://www.w3.org/2000/svg" xmlns:xlink="http://www.w3.org/1999/xlink" xml:space="preserve" xmlns:serif="http://www.serif.com/" style="fill-rule:evenodd;clip-rule:evenodd;stroke-linejoin:round;stroke-miterlimit:1.41421;"><path d="M46.74,33.933c0.256,1.214 0.386,2.45 0.39,3.69c0,10.122 -8.329,18.45 -18.45,18.45c-10.122,0 -18.45,-8.328 -18.45,-18.45c0,-10.121 8.328,-18.45 18.45,-18.45c0.007,0 0.015,0 0.022,0c0.488,0 0.983,0 1.5,0.068c0.623,-0.45 1.223,-0.915 1.763,-1.395c0.18,-0.152 0.373,-0.288 0.577,-0.405c-1.263,-0.24 -2.546,-0.361 -3.832,-0.361c-11.261,0 -20.528,9.266 -20.528,20.527c0,11.261 9.267,20.528 20.528,20.528c11.258,0 20.523,-9.261 20.527,-20.519c-0.005,-1.259 -0.128,-2.514 -0.367,-3.75c-0.72,0.045 -1.433,0.06 -2.13,0.067Z" style="fill-rule:nonzero;"/><path d="M28.672,50.103c-1.54,-0.001 -3.066,-0.291 -4.5,-0.855c-6.052,-2.37 -8.872,-8.647 -7.17,-15.997c1.155,-4.988 4.448,-9.368 9.54,-12.66c12.173,-7.875 26.708,-8.49 36.788,-7.605c4.215,0.367 5.745,1.087 6.052,2.842c0.443,2.49 -2.685,3.698 -7.012,5.355c-0.825,0.315 -1.703,0.653 -2.61,1.02c-4.605,1.86 -4.17,4.5 -2.828,9.878l0.09,0.352c0.037,0.106 0.055,0.218 0.055,0.33c0,0.555 -0.457,1.012 -1.012,1.012c-0.496,0 -0.923,-0.364 -1,-0.854l-0.09,-0.353c-1.238,-4.957 -2.415,-9.645 4.035,-12.24c0.915,-0.367 1.807,-0.712 2.64,-1.035c2.625,-1.012 5.902,-2.25 5.752,-3.12c-0.097,-0.54 -1.5,-0.937 -4.237,-1.177c-9.75,-0.855 -23.82,-0.285 -35.513,7.29c-4.65,3.007 -7.642,6.93 -8.677,11.43c-1.5,6.412 0.795,11.647 5.94,13.657c2.567,1.018 5.44,0.961 7.965,-0.157c2.544,-1.121 4.541,-3.208 5.55,-5.798c0.797,-2.036 0.926,-4.275 0.367,-6.39c-0.026,-0.091 -0.039,-0.186 -0.039,-0.281c0,-0.559 0.459,-1.018 1.018,-1.018c0.453,0 0.854,0.302 0.979,0.737c0.667,2.527 0.512,5.202 -0.443,7.635c-1.863,4.795 -6.495,7.979 -11.64,8.002Z" style="fill-rule:nonzero;"/><path d="M51.75,23.351l-0.203,0c-1.617,-0.106 -2.89,-1.466 -2.89,-3.087c0,-1.696 1.396,-3.092 3.093,-3.092c0.067,0 0.135,0.002 0.202,0.006c1.611,0.112 2.876,1.469 2.876,3.083c0,1.69 -1.388,3.083 -3.078,3.09Zm0,-4.635c-0.016,-0.001 -0.033,-0.001 -0.049,-0.001c-0.842,0 -1.534,0.693 -1.534,1.534c0,0.824 0.662,1.508 1.485,1.534c0.033,0.002 0.066,0.004 0.1,0.004c0.795,0 1.46,-0.634 1.498,-1.429c0.005,-0.048 0.007,-0.096 0.007,-0.145c0,-0.791 -0.627,-1.453 -1.417,-1.497l-0.09,0Z" style="fill-rule:nonzero;"/><path d="M52.597,17.366l3.12,-0.488c0.008,-0.001 0.015,-0.002 0.023,-0.002c0.057,0 0.105,0.047 0.105,0.105c0,0.001 0,0.001 0,0.002c-0.135,0.572 -0.432,1.093 -0.855,1.5c-0.259,0.325 -0.562,0.613 -0.9,0.855l-1.493,-1.972Z" style="fill-rule:nonzero;"/><path d="M31.59,48.978c-2.41,0.054 -4.712,-1.02 -6.218,-2.902c-1.927,-2.573 -1.777,-6.885 1.808,-9.66c3.127,-2.423 7.89,-2.685 13.402,-3l0.315,0c20.325,-1.125 27.465,-5.835 31.103,-9.285c1.635,-1.56 1.5,-1.838 0.93,-3c-0.137,-0.177 -0.211,-0.395 -0.211,-0.618c0,-0.556 0.457,-1.013 1.013,-1.013c0.443,0 0.838,0.292 0.968,0.716c0.945,1.897 0.982,3.12 -1.343,5.34c-3.832,3.705 -11.355,8.715 -32.347,9.877l-0.315,0c-5.175,0.285 -9.645,0.533 -12.278,2.565c-2.632,2.033 -2.767,5.078 -1.417,6.87c1.612,2.145 5.145,2.738 7.717,1.298c0.164,-0.105 0.353,-0.161 0.547,-0.161c0.556,0 1.013,0.457 1.013,1.013c0,0.387 -0.222,0.741 -0.57,0.91c-1.259,0.698 -2.677,1.059 -4.117,1.05Z" style="fill-rule:nonzero;"/><path d="M54.832,32.966c0.274,1.537 0.412,3.095 0.412,4.656c0,14.569 -11.989,26.557 -26.558,26.557c-14.569,0 -26.557,-11.988 -26.557,-26.557c0,-14.569 11.988,-26.558 26.557,-26.558c3.147,0 6.268,0.56 9.219,1.652c0.12,0.045 0.247,0.069 0.375,0.069c0.579,0 1.055,-0.477 1.055,-1.056c0,-0.437 -0.272,-0.83 -0.68,-0.986c-14.606,-5.358 -31.047,2.049 -36.713,16.538c-1.283,3.306 -1.942,6.822 -1.942,10.369c0,15.717 12.933,28.65 28.65,28.65c4.004,0 7.965,-0.839 11.625,-2.464c12.087,-5.339 18.987,-18.384 16.597,-31.38l-2.04,0.51Z" style="fill-rule:nonzero;"/></svg>