<?xml version="1.0" encoding="UTF-8" standalone="no"?><!DOCTYPE svg PUBLIC "-//W3C//DTD SVG 1.1//EN" "http://www.w3.org/Graphics/SVG/1.1/DTD/svg11.dtd"><svg width="100%" height="100%" viewBox="0 0 314 314" version="1.1" xmlns="http://www.w3.org/2000/svg" xmlns:xlink="http://www.w3.org/1999/xlink" xml:space="preserve" xmlns:serif="http://www.serif.com/" style="fill-rule:evenodd;clip-rule:evenodd;stroke-linejoin:round;stroke-miterlimit:1.41421;"><path d="M195.069,11.194l-7.027,26.537c52.767,13.848 91.67,61.815 91.67,118.903c0,67.897 -55.037,122.921 -122.933,122.921c-0.018,0 -0.057,0 -0.069,0l0,27.614c83.091,0 150.487,-67.377 150.487,-150.46c0,-69.844 -47.61,-128.568 -112.128,-145.515Z" style="fill:#ffd400;fill-rule:nonzero;"/><path d="M156.779,33.704c2.853,0 5.674,0.141 8.479,0.339l1.906,-27.404c-3.457,-0.228 -6.941,-0.399 -10.454,-0.399c-5.95,0 -11.804,0.387 -17.578,1.056l3.199,27.293c4.753,-0.564 9.554,-0.885 14.448,-0.885Z" style="fill:#ffdd4f;fill-rule:nonzero;"/><path d="M188.042,37.731l7.027,-26.537c-9.008,-2.379 -18.33,-3.898 -27.905,-4.555l-1.906,27.404c7.805,0.516 15.447,1.765 22.784,3.688Z" style="fill:#ffd82e;fill-rule:nonzero;"/><path d="M33.849,156.709l-27.608,0c0,49.89 24.307,94.089 61.703,121.469l16.299,-22.324c-30.503,-22.346 -50.355,-58.421 -50.394,-99.145Z" style="fill:#fff7c0;fill-rule:nonzero;"/><path d="M84.243,255.854l-16.299,22.324c24.878,18.216 55.565,28.991 88.766,28.991l0,-27.614c-27.113,-0.018 -52.126,-8.837 -72.467,-23.701Z" style="fill:#fffcd5;fill-rule:nonzero;"/><path d="M33.849,156.634c0,-13.538 2.238,-26.549 6.283,-38.728l-26.192,-8.708c-4.975,14.943 -7.699,30.897 -7.699,47.511l27.608,0c0,-0.03 0,-0.054 0,-0.075Z" style="fill:#fff1ab;fill-rule:nonzero;"/><path d="M142.331,34.589l-3.199,-27.293c-9.595,1.102 -18.93,3.112 -27.884,5.941l8.303,26.222c7.339,-2.322 14.964,-3.963 22.78,-4.87Z" style="fill:#ffe26a;fill-rule:nonzero;"/><path d="M119.551,39.459l-8.303,-26.222c-19.755,6.26 -37.729,16.504 -53.038,29.766l18.034,20.812c12.476,-10.847 27.179,-19.246 43.307,-24.356Z" style="fill:#ffe681;fill-rule:nonzero;"/><path d="M76.244,63.815l-18.034,-20.812c-20.184,17.505 -35.643,40.291 -44.27,66.195l26.192,8.708c7.012,-21.172 19.627,-39.781 36.112,-54.091Z" style="fill:#ffec95;fill-rule:nonzero;"/><path d="M212.058,144.092c0.129,2.736 -0.015,7.816 -6.151,12.716c-4.666,3.739 -8.705,4.537 -7.525,8.51c0.474,1.617 0.135,8.878 -5.215,10.163c-2.329,0.573 -2.974,6.538 -0.748,8.017c1.087,0.714 3.394,1.581 6.377,1.194c2.586,-0.351 4.659,-3.762 2.352,-7.174c-2.25,-3.286 -0.984,-10.511 3.403,-11.426c2.709,-0.564 5.299,-0.105 10.943,-5.884c5.398,-5.545 6.37,-16.539 -3.436,-16.116Zm-114.114,16.116c5.638,5.779 8.227,5.32 10.949,5.884c4.348,0.915 5.626,8.14 3.396,11.426c-2.325,3.412 -0.246,6.823 2.335,7.174c2.988,0.387 5.308,-0.48 6.382,-1.194c2.245,-1.479 1.587,-7.444 -0.732,-8.017c-5.38,-1.285 -5.686,-8.546 -5.23,-10.163c1.185,-3.973 -2.878,-4.771 -7.534,-8.51c-6.131,-4.9 -6.26,-9.98 -6.161,-12.716c-9.793,-0.423 -8.824,10.571 -3.405,16.116Zm53.761,-18.367c-14.121,1.255 -24.95,-6.664 -29.616,-6.793c-2.151,-0.039 -5.227,0.453 -6.07,4.654c0,0 -0.903,4.858 0,8.03c2.122,7.471 7.898,12.623 12.528,13.823c7.333,1.953 6.712,9.068 4.566,11.762c-0.909,1.191 -5.428,8.558 6.272,8.357c7.132,-0.111 10.844,-7.994 3.843,-9.359c-3.441,-0.669 -6.061,-9.059 0,-13.01c3.985,-2.614 7.433,-4.888 7.901,-9.611c0.369,-1.71 0.576,-7.853 0.576,-7.853Zm10.598,7.853c1.143,4.618 3.927,6.997 7.9,9.611c6.061,3.951 3.442,12.341 0,13.01c-6.988,1.365 -3.276,9.248 3.844,9.359c11.663,0.201 7.174,-7.166 6.253,-8.357c-2.136,-2.694 -2.754,-9.809 4.567,-11.762c4.654,-1.2 10.946,-6.223 12.542,-13.823c1.324,-4.168 0,-8.03 0,-8.03c-0.84,-4.201 -3.921,-4.693 -6.043,-4.654c-4.678,0.129 -15.507,8.048 -29.663,6.793c0,0 -0.12,4.864 0.6,7.853Zm-5.8,65.577c-40.34,0 -49.945,-15.183 -49.945,-15.183c-0.012,-25.598 -8.263,-28.985 -15.617,-33.768c-18.829,-12.248 -8.603,-37.156 12.209,-30.708c5.653,-11.54 20.938,-14.723 32.73,-4.753c2.349,1.969 7.12,5.104 14.187,5.776c1.851,0.183 1.707,-1.134 1.707,-2.061c-5.527,-1.593 -9.137,-6.205 -9.098,-12.317c0.078,-6.748 4.237,-12.486 10.538,-13.152l0,-2.367c0,-1.993 -1.716,-1.818 -1.716,-1.818l-3.019,0c-0.996,1.71 -1.962,2.919 -5.251,2.82c-3.516,-0.111 -5.446,-2.95 -5.455,-6.103c-0.036,-3.193 2.056,-6.112 5.542,-6.241c3.094,-0.111 4.018,1.296 5.134,3.018l3.604,0c2.106,0 2.211,-0.867 2.211,-3.129c-1.797,-1.243 -3.381,-1.81 -3.381,-5.896c0,-3.499 2.331,-6.001 5.86,-6.046c3.495,0.045 5.818,2.547 5.818,6.046c0,4.086 -1.623,4.653 -3.4,5.896c0,2.262 0.12,3.129 2.23,3.129l3.567,0c1.102,-1.722 2.059,-3.129 5.14,-3.018c3.511,0.129 5.578,3.048 5.566,6.241c-0.033,3.153 -1.944,5.992 -5.461,6.103c-3.276,0.099 -4.255,-1.11 -5.257,-2.82l-3.018,0c0,0 -1.705,-0.175 -1.705,1.818l0,2.367c6.284,0.738 10.454,6.404 10.532,13.152c0.045,6.112 -3.591,10.658 -9.094,12.317c0,0.927 -0.147,2.244 1.695,2.061c7.081,-0.672 11.858,-3.807 14.19,-5.776c11.792,-9.97 27.113,-6.787 32.727,4.753c20.839,-6.448 31.029,18.46 12.23,30.708c-7.384,4.783 -15.624,8.17 -15.654,33.768c0,0 -10.016,15.183 -50.346,15.183Z" style="fill:#285a78;fill-rule:nonzero;"/></svg>