<?xml version="1.0" encoding="UTF-8" standalone="no"?>
<svg
   xmlns:dc="http://purl.org/dc/elements/1.1/"
   xmlns:cc="http://creativecommons.org/ns#"
   xmlns:rdf="http://www.w3.org/1999/02/22-rdf-syntax-ns#"
   xmlns:svg="http://www.w3.org/2000/svg"
   xmlns="http://www.w3.org/2000/svg"
   height="335"
   width="335"
   xml:space="preserve"
   viewBox="0 0 335 335"
   y="0px"
   x="0px"
   id="Layer_1"
   version="1.1"><metadata
     id="metadata69"><rdf:RDF><cc:Work
         rdf:about=""><dc:format>image/svg+xml</dc:format><dc:type
           rdf:resource="http://purl.org/dc/dcmitype/StillImage" /><dc:title></dc:title></cc:Work></rdf:RDF></metadata><defs
     id="defs67" /><g
     transform="translate(0.8075,119.694)"
     id="g62"><g
       id="g42"><path
         style="fill:#13143c"
         id="path2"
         d="m 324.885,66.963 h -2.609 c -1.391,4.956 -2.434,5.694 -6,6.173 v 1.479 h 3.348 v 14.301 c 0,2.738 1.174,4.348 5.174,4.348 2.064,0 5.365,-0.518 6.922,-1.009 v -1.271 c -0.756,0.07 -1.855,0.105 -2.4,0.105 -2.957,0 -4.434,-1 -4.434,-2.956 V 74.614 h 6.998 v -2.131 h -6.998 v -5.52 z" /><path
         style="fill:#13143c"
         id="path4"
         d="m 214.082,75.831 c 0,-1.348 0.914,-2.608 2.74,-2.608 2.043,0 3.434,1.565 3.564,3.739 0.304,0.086 0.869,0.173 1.304,0.173 1.435,0 2.261,-1.043 2.261,-2.174 0,-2.261 -3.391,-3.304 -6.434,-3.304 -3.783,0 -8.086,1.608 -8.086,5.869 0,6.607 10.477,6.129 10.477,11.172 0,1.912 -1.478,3.174 -3.521,3.174 -2.781,0 -3.782,-2.305 -3.825,-4.999 -2.13,0 -3.608,0.999 -3.608,2.694 0,2.564 3.434,3.869 6.955,3.869 5.086,0 8.912,-2.738 8.912,-6.651 -0.001,-6.52 -10.739,-6.347 -10.739,-10.954 z" /><path
         style="fill:#13143c"
         id="path6"
         d="M 191.312,89.915 V 77.657 c 0,-3.87 -2.566,-6 -5.868,-6 -3.132,0 -5.565,1.913 -7.087,3.261 v -3.261 l -7.955,1.521 v 0.783 l 1.522,0.782 c 1.043,0.522 1.13,1.044 1.13,2.218 v 12.953 c 0,0.739 -0.26,1.348 -0.957,1.608 l -1.695,0.652 v 0.608 h 10.608 v -0.608 l -1.696,-0.652 c -0.652,-0.261 -0.957,-0.869 -0.957,-1.608 V 76.092 c 0.913,-0.565 2.521,-1.478 4.391,-1.478 2.174,0 3.217,1.174 3.217,3.694 v 11.606 c 0,0.739 -0.26,1.348 -0.912,1.608 l -1.74,0.652 v 0.608 h 10.652 v -0.608 l -1.739,-0.652 c -0.653,-0.259 -0.914,-0.868 -0.914,-1.607 z" /><path
         style="fill:#13143c"
         id="path8"
         d="m 6.936,69.093 c 0,-2.087 1.564,-4.043 4.389,-4.043 3.87,0 5.305,3.651 6.174,5.868 h 1.652 v -6.563 c -1.131,-0.348 -4.912,-1.131 -7.564,-1.131 -5.217,0 -10.086,3.088 -10.086,7.955 0,8.217 13.65,8.086 13.65,15.259 0,2.999 -2.391,5.304 -5.391,5.304 -3.912,0 -5.477,-3.956 -6.433,-6.694 H 1.719 v 7.434 c 1.13,0.347 5.563,1.13 8.259,1.13 5.478,0 10.867,-3.304 10.867,-8.999 0,-9.174 -13.909,-9.304 -13.909,-15.52 z" /><path
         style="fill:#13143c"
         id="path10"
         d="M 30.887,89.828 V 62.833 l -7.955,1.521 v 0.87 l 1.521,0.738 c 1.043,0.521 1.131,1.087 1.131,2.261 v 21.604 c 0,0.739 -0.261,1.304 -0.957,1.608 l -1.695,0.739 v 0.608 h 10.607 v -0.608 l -1.695,-0.739 c -0.697,-0.303 -0.957,-0.911 -0.957,-1.607 z" /><path
         style="fill:#13143c"
         id="path12"
         d="m 36.973,73.136 1.217,0.826 c 0.479,0.348 0.522,0.564 0.522,0.695 0,0.261 -0.262,0.609 -0.783,1.131 l -6.521,6.563 5.174,7.782 c 1.695,2.563 1.738,2.65 5.303,2.65 h 3.738 v -0.521 c -1.086,-0.564 -1.869,-1.043 -2.955,-2.564 l -6.826,-9.346 5.392,-4.609 c 1.304,-1.129 2.87,-1.869 4.521,-2.607 v -0.652 h -8.781 v 0.652 z" /><path
         style="fill:#13143c"
         id="path14"
         d="m 64.603,88.698 v -11.65 c 0,-3.869 -3.348,-5.391 -7.347,-5.391 -4.348,0 -8.477,1.826 -8.477,4.564 0,1.217 0.782,2.261 2.564,2.261 0.651,0 1.173,-0.131 1.521,-0.261 -0.043,-0.348 -0.087,-0.608 -0.087,-1.087 0,-1.956 0.696,-4.042 3.391,-4.042 2.478,0 3.174,1.781 3.174,3.912 v 4.998 H 56.3 c -6.955,0 -9.303,1.695 -9.303,5.869 0,3.521 2.086,5.564 5.478,5.564 3.347,0 6.303,-2 6.955,-2.435 0,1.739 1.043,2.304 2.478,2.304 1.434,0 4.693,-0.521 5.869,-0.869 V 91.697 L 65.82,91.001 C 64.646,90.61 64.603,89.872 64.603,88.698 Z m -5.26,1.217 c -0.869,0.435 -2.174,0.783 -3.174,0.783 -2.391,0 -3.956,-1.044 -3.956,-3.652 0,-1.478 0.695,-3.564 4.522,-3.564 h 2.607 v 6.433 z" /><path
         style="fill:#13143c"
         id="path16"
         d="m 253.566,71.657 c -5.783,0 -10.479,3.521 -10.479,11.216 0,7.347 4.87,10.563 10.434,10.563 4.043,0 6.738,-1.652 8.173,-2.912 v -1.043 c -1.347,0.738 -3.521,1.434 -5.956,1.434 -3.955,0 -6.997,-2.391 -6.997,-8.781 v -0.521 h 13.345 v -1.436 c -0.001,-4.91 -2.696,-8.52 -8.52,-8.52 z M 257,80.048 h -8.259 c 0.086,-3.826 1.129,-6.955 4.434,-6.955 2.825,0 3.825,2.347 3.825,5.434 z" /><path
         style="fill:#13143c"
         id="path18"
         d="m 278.706,71.657 c -2.477,0 -5.477,2.912 -6.434,4.086 v -4.086 l -7.955,1.565 v 0.694 l 1.521,0.783 c 1.044,0.566 1.131,1.043 1.131,2.262 v 12.866 c 0,0.696 -0.305,1.304 -0.957,1.608 l -1.695,0.739 v 0.608 h 11.346 v -0.608 l -2.434,-0.913 C 272.577,91 272.272,90.348 272.272,89.653 V 77.222 c 0.74,-0.826 2.392,-2.086 3.129,-2.086 1.045,0 1.48,2.434 3.479,2.434 1.479,0 2.783,-1.348 2.783,-2.955 0,-1.61 -1.305,-2.958 -2.957,-2.958 z" /><path
         style="fill:#13143c"
         id="path20"
         d="m 306.079,71.629 c -5.782,0 -10.475,3.521 -10.475,11.216 0,7.347 4.869,10.563 10.434,10.563 4.041,0 6.736,-1.652 8.171,-2.912 v -1.043 c -1.348,0.738 -3.521,1.434 -5.955,1.434 -3.958,0 -7,-2.391 -7,-8.781 V 81.585 H 314.6 v -1.436 c 0,-4.911 -2.696,-8.52 -8.521,-8.52 z m 3.435,8.391 h -8.259 c 0.088,-3.826 1.131,-6.955 4.434,-6.955 2.826,0 3.826,2.347 3.826,5.434 v 1.521 z" /><path
         style="fill:#13143c"
         id="path22"
         d="m 109.241,71.657 c -5.782,0 -10.478,3.521 -10.478,11.216 0,7.347 4.869,10.563 10.433,10.563 4.043,0 6.738,-1.652 8.172,-2.912 v -1.043 c -1.346,0.738 -3.52,1.434 -5.955,1.434 -3.955,0 -6.998,-2.391 -6.998,-8.781 v -0.521 h 13.346 v -1.436 c -10e-4,-4.91 -2.696,-8.52 -8.52,-8.52 z m 3.433,8.391 h -8.26 c 0.086,-3.826 1.13,-6.955 4.435,-6.955 2.825,0 3.825,2.347 3.825,5.434 z" /><path
         style="fill:#13143c"
         id="path24"
         d="M 152.797,89.915 V 77.657 c 0,-3.87 -2.348,-6 -5.346,-6 -3.131,0 -5.566,1.913 -7.087,3.261 l -0.392,0.304 c -0.783,-2.303 -2.694,-3.564 -4.955,-3.564 -3.131,0 -5.564,1.913 -7.086,3.261 v -3.261 l -7.955,1.521 v 0.783 l 1.521,0.782 c 1.044,0.522 1.13,1.044 1.13,2.218 v 12.953 c 0,0.739 -0.261,1.348 -0.956,1.608 l -1.695,0.652 v 0.608 h 10.606 v -0.608 l -1.695,-0.652 c -0.651,-0.261 -0.956,-0.869 -0.956,-1.608 V 76.092 c 0.913,-0.565 2.521,-1.478 4.391,-1.478 1.912,0 2.74,1.174 2.74,3.694 v 11.606 c 0,0.739 -0.262,1.348 -0.914,1.608 l -1.74,0.652 v 0.608 h 10.607 v -0.608 l -1.739,-0.652 c -0.651,-0.261 -0.912,-0.869 -0.912,-1.608 V 77.657 c 0,-0.522 -0.044,-1.044 -0.131,-1.522 1,-0.608 2.826,-1.521 4.522,-1.521 1.912,0 2.738,1.174 2.738,3.694 v 11.606 c 0,0.739 -0.262,1.348 -0.914,1.608 l -1.738,0.652 v 0.608 h 10.606 v -0.608 l -1.738,-0.652 c -0.652,-0.259 -0.912,-0.868 -0.912,-1.607 z" /><path
         style="fill:#13143c"
         id="path26"
         d="M 165.566,89.915 V 71.657 l -7.958,1.479 v 0.826 l 1.521,0.782 c 1.043,0.564 1.131,1.044 1.131,2.261 v 12.91 c 0,0.739 -0.262,1.348 -0.957,1.608 l -1.695,0.652 v 0.608 h 10.609 v -0.608 l -1.695,-0.652 c -0.652,-0.26 -0.956,-0.869 -0.956,-1.608 z" /><path
         style="fill:#13143c"
         id="path28"
         d="m 159.608,64.761 c 0,1.695 1.391,3.087 3.086,3.087 1.696,0 3.089,-1.392 3.089,-3.087 0,-1.695 -1.393,-3.086 -3.089,-3.086 -1.695,0 -3.086,1.39 -3.086,3.086 z" /><path
         style="fill:#13143c"
         id="path30"
         d="M 204.047,89.915 V 71.657 l -7.958,1.479 v 0.826 l 1.521,0.782 c 1.043,0.564 1.131,1.044 1.131,2.261 v 12.91 c 0,0.739 -0.262,1.348 -0.957,1.608 l -1.695,0.652 v 0.608 h 10.609 v -0.608 l -1.695,-0.652 c -0.652,-0.26 -0.956,-0.869 -0.956,-1.608 z" /><path
         style="fill:#13143c"
         id="path32"
         d="m 201.175,67.848 c 1.696,0 3.089,-1.392 3.089,-3.087 0,-1.695 -1.393,-3.086 -3.089,-3.086 -1.695,0 -3.086,1.391 -3.086,3.086 0,1.695 1.391,3.087 3.086,3.087 z" /><path
         style="fill:#13143c"
         id="path34"
         d="M 291.281,89.915 V 71.657 l -7.958,1.479 v 0.826 l 1.521,0.782 c 1.043,0.564 1.131,1.044 1.131,2.261 v 12.91 c 0,0.739 -0.262,1.348 -0.957,1.608 l -1.695,0.652 v 0.608 h 10.609 v -0.608 l -1.695,-0.652 c -0.653,-0.26 -0.956,-0.869 -0.956,-1.608 z" /><path
         style="fill:#13143c"
         id="path36"
         d="m 288.408,67.848 c 1.697,0 3.09,-1.392 3.09,-3.087 0,-1.695 -1.393,-3.086 -3.09,-3.086 -1.695,0 -3.085,1.391 -3.085,3.086 0,1.695 1.39,3.087 3.085,3.087 z" /><path
         style="fill:#13143c"
         id="path38"
         d="m 91.185,66.963 h -2.609 c -0.738,5.521 -2.391,5.694 -5.998,5.694 h -6.15 v -5.694 h -2.565 c -0.782,5.478 -2.478,5.694 -6.042,6.173 v 1.479 h 3.392 v 14.301 c 0,2.783 1.173,4.348 5.129,4.348 2.064,0 5.361,-0.518 6.918,-1.008 v -1.271 c -0.763,0.07 -1.896,0.105 -2.441,0.105 -2.955,0 -4.391,-1 -4.391,-2.956 v -13.52 h 9.497 v 14.301 c 0,2.738 1.175,4.348 5.173,4.348 2.066,0 5.368,-0.519 6.922,-1.009 v -1.271 c -0.761,0.07 -1.899,0.105 -2.444,0.105 -2.957,0 -4.391,-1 -4.391,-2.956 V 74.614 h 6.954 v -2.131 h -6.954 z" /><path
         style="fill:#13143c"
         id="path40"
         d="m 235.121,66.963 h -2.608 c -1.392,4.956 -2.435,5.694 -6,6.173 v 1.479 h 3.348 v 14.301 c 0,2.738 1.174,4.348 5.174,4.348 2.064,0 5.365,-0.518 6.921,-1.009 v -1.271 c -0.755,0.07 -1.855,0.105 -2.4,0.105 -2.956,0 -4.434,-1 -4.434,-2.956 V 74.614 h 6.999 v -2.131 h -6.999 v -5.52 z" /></g><g
       id="g60"><path
         style="fill:#d1c5c3"
         id="path44"
         d="m 143.752,41.62 h 2.789 0.002 c 0.07,-1.369 0.553,-3.867 -0.221,-5.295 -0.871,-1.607 -2.861,-3.104 -4.707,-4.855 -0.73,-0.756 -2.428,-1.939 -2.428,-4.043 0,-2.789 2.066,-3.537 3.473,-3.588 0.496,-0.02 0.996,0.049 1.477,0.195 0.217,-0.92 0.602,-1.871 1.184,-2.648 -0.822,-0.287 -1.725,-0.432 -2.592,-0.414 -2.682,0.057 -6.445,1.895 -6.445,6.455 0,3.014 1.908,4.809 3.643,6.545 1.952,1.954 3.536,3.81 3.825,7.648 z" /><rect
         style="fill:#d1c5c3"
         id="rect46"
         height="2.734"
         width="38.341"
         y="43.833"
         x="143.73801" /><rect
         style="fill:#d1c5c3"
         id="rect48"
         height="2.7360001"
         width="38.341"
         y="48.779999"
         x="143.73801" /><path
         style="fill:#d1c5c3"
         id="path50"
         d="m 151.82,41.62 h 3.016 c 0.271,-2.305 1.164,-4.297 0.609,-5.996 -0.629,-1.924 -3.145,-3.965 -4.625,-5.592 -1.213,-1.331 -1.973,-2.508 -1.973,-4.167 0,-1.838 1.465,-3.521 3.674,-3.521 2.506,0 3.982,2.342 7.031,2.342 v -2.773 c -1.787,-0.172 -3.527,-2.357 -7.031,-2.357 -1.869,0 -3.561,0.68 -4.762,1.918 -1.146,1.182 -1.777,2.781 -1.777,4.506 0,2.631 1.283,4.252 2.527,5.821 1.606,2.022 3.405,4.408 3.311,9.819 z" /><path
         style="fill:#d1c5c3"
         id="path52"
         d="m 183.166,23.838 c 1.406,0.051 3.473,0.799 3.473,3.588 0,2.104 -1.697,3.288 -2.428,4.043 -1.846,1.752 -3.836,3.248 -4.707,4.855 -0.773,1.428 -0.291,3.926 -0.221,5.295 h 0.002 2.789 c 0.289,-3.838 1.873,-5.693 3.826,-7.648 1.734,-1.736 3.643,-3.531 3.643,-6.545 0,-4.561 -3.764,-6.398 -6.445,-6.455 -0.867,-0.018 -1.77,0.127 -2.592,0.414 0.582,0.777 0.967,1.729 1.184,2.648 0.479,-0.146 0.979,-0.215 1.476,-0.195 z" /><path
         style="fill:#d1c5c3"
         id="path54"
         d="m 166.273,24.686 c 3.049,0 4.525,-2.342 7.031,-2.342 2.209,0 3.674,1.684 3.674,3.521 0,1.658 -0.76,2.836 -1.973,4.167 -1.48,1.627 -3.996,3.668 -4.625,5.592 -0.555,1.699 0.338,3.691 0.609,5.996 h 3.016 c -0.094,-5.41 1.705,-7.797 3.311,-9.82 1.244,-1.568 2.527,-3.19 2.527,-5.821 0,-1.725 -0.631,-3.324 -1.777,-4.506 -1.201,-1.238 -2.893,-1.918 -4.762,-1.918 -3.504,0 -5.244,2.186 -7.031,2.357 z" /><path
         style="fill:#d1c5c3"
         id="path56"
         d="m 161.44,19.68 v 8.22 c 0,-0.006 -0.002,-0.01 -0.002,-0.01 0,5.237 -1.377,6.522 -1.377,8.278 0,2.186 0.893,2.91 1.375,5.326 0.002,-0.002 0.002,-0.004 0.004,-0.006 v 0.006 h 2.95 v -0.008 c 0.002,0.004 0.002,0.006 0.004,0.008 0.482,-2.416 1.375,-3.141 1.375,-5.326 0,-1.756 -1.377,-3.041 -1.377,-8.278 0,0 0,0.008 -0.002,0.02 v -8.23 z" /><path
         style="fill:#d1c5c3"
         id="path58"
         d="m 161.627,10.463 c -1.555,0.536 -2.68,1.996 -2.68,3.734 0,2.191 1.778,3.967 3.969,3.967 2.188,0 3.966,-1.775 3.966,-3.967 0,-1.738 -1.125,-3.199 -2.681,-3.735 V 7.566 h 2.896 V 4.994 h -2.896 V 2 h -2.574 v 2.994 h -2.895 v 2.572 h 2.895 z m 1.29,2.207 c 0.842,0 1.524,0.686 1.524,1.527 0,0.841 -0.683,1.525 -1.524,1.525 -0.844,0 -1.527,-0.684 -1.527,-1.525 0,-0.841 0.683,-1.527 1.527,-1.527 z" /></g></g></svg>