<?xml version="1.0" encoding="UTF-8" standalone="no"?><!DOCTYPE svg PUBLIC "-//W3C//DTD SVG 1.1//EN" "http://www.w3.org/Graphics/SVG/1.1/DTD/svg11.dtd"><svg width="100%" height="100%" viewBox="0 0 53 47" version="1.1" xmlns="http://www.w3.org/2000/svg" xmlns:xlink="http://www.w3.org/1999/xlink" xml:space="preserve" xmlns:serif="http://www.serif.com/" style="fill-rule:evenodd;clip-rule:evenodd;stroke-linejoin:round;stroke-miterlimit:1.41421;"><g id="Krone"><g id="Group-3"><path id="Fill-1" d="M44.676,43.67l-18.176,0l-18.176,0c-0.109,0 -0.198,0.09 -0.198,0.199l0,1.871c0,0.111 0.089,0.199 0.198,0.199l36.352,0c0.109,0 0.198,-0.088 0.198,-0.199l0,-1.871c0,-0.109 -0.089,-0.199 -0.198,-0.199" style="fill:#009ac5;"/></g><g id="Group-6"><path id="Fill-4" d="M47.373,27.941c-0.96,1.417 -3.336,4.293 -4.265,6.496l-0.006,0c-0.236,0.584 -0.847,1.003 -1.572,1.003c-0.919,0 -1.673,-0.682 -1.673,-1.519c0,-0.27 0.094,-0.505 0.218,-0.743c0.758,-1.546 1.754,-2.771 2.094,-3.167c0.894,-1.04 0.267,-2.254 -1.068,-2.43l-0.066,-0.008c0,0 2.018,-3.279 2.077,-4.732c4.961,-1.89 5.842,2.775 4.261,5.1Zm-8.941,-3.616c-1.291,3.687 -2.359,6.399 -2.751,8.719c-0.142,1.393 -1.308,2.383 -2.794,2.383c-1.55,0 -2.801,-1.126 -2.801,-2.527c0,-0.204 0.032,-0.392 0.074,-0.576c0.327,-1.538 0.756,-2.884 1.177,-4.014c0.905,-2.404 -0.817,-4.412 -3.519,-4.251l0,-3.275c0.741,0 1.808,-0.257 3.021,-0.877c6.824,-3.485 9.03,0.348 7.593,4.418Zm-13.25,-0.266c-2.703,-0.161 -4.424,1.847 -3.519,4.251c0.421,1.13 0.849,2.476 1.176,4.014c0.044,0.184 0.075,0.372 0.075,0.576c0,1.401 -1.251,2.527 -2.801,2.527c-1.485,0 -2.653,-0.99 -2.795,-2.383c-0.391,-2.32 -1.458,-5.032 -2.75,-8.719c-1.437,-4.07 0.768,-7.903 7.593,-4.418c1.213,0.62 2.279,0.877 3.021,0.877l0,3.275Zm-13.712,11.381c-0.725,0 -1.336,-0.419 -1.572,-1.003l-0.006,0c-0.929,-2.203 -3.305,-5.079 -4.265,-6.496c-1.582,-2.325 -0.7,-6.99 4.261,-5.1c0.058,1.453 2.077,4.732 2.077,4.732l-0.067,0.008c-1.334,0.176 -1.961,1.39 -1.067,2.43c0.339,0.396 1.337,1.621 2.094,3.167c0.124,0.238 0.218,0.473 0.218,0.743c0,0.837 -0.754,1.519 -1.673,1.519Zm32.401,-15.119l-0.808,0.193c-0.551,-4.094 -4.845,-6.869 -13.006,-2.677c-0.628,0.322 -1.374,0.714 -2.239,0.68l0,-2.268c1.7,-0.506 2.932,-1.946 2.932,-3.66c0,-1.843 -1.44,-3.381 -3.359,-3.753l0,-1.777l1.548,0l0,0.008c0,0.532 0.39,0.967 0.863,0.967c0.481,0 0.875,-0.435 0.875,-0.967c0.527,0 0.956,-0.391 0.956,-0.872c0,-0.482 -0.429,-0.869 -0.956,-0.869c0,-0.537 -0.394,-0.967 -0.875,-0.967c-0.473,0 -0.863,0.43 -0.863,0.967l-1.548,0l0,-1.492c0.545,0 0.983,-0.406 0.983,-0.892c0,-0.493 -0.438,-0.884 -0.983,-0.884c0,-0.547 -0.402,-0.995 -0.891,-0.997c-0.49,0.002 -0.891,0.45 -0.891,0.997c-0.545,0 -0.983,0.391 -0.983,0.884c0,0.486 0.438,0.892 0.983,0.892l0,1.492l-1.549,0c0,-0.537 -0.389,-0.967 -0.862,-0.967c-0.481,0 -0.874,0.43 -0.874,0.967c-0.528,0 -0.957,0.387 -0.957,0.869c0,0.481 0.429,0.872 0.957,0.872c0,0.532 0.393,0.967 0.874,0.967c0.473,0 0.862,-0.435 0.862,-0.967l0,-0.008l1.549,0l0,1.777c-1.918,0.372 -3.359,1.91 -3.359,3.753c0,1.714 1.233,3.154 2.932,3.66l0,2.268c-0.865,0.034 -1.612,-0.358 -2.239,-0.68c-8.16,-4.192 -12.454,-1.417 -13.006,2.677l-0.808,-0.193c-7.847,-1.944 -9.3,4.286 -7.72,6.889c0.631,1.048 2.017,2.558 3.358,4.234c-0.556,0.305 -1.013,1.111 -0.17,1.811c0.662,0.55 3.429,2.495 3.526,6.608c0.003,0.12 0.097,0.222 0.217,0.222l36.32,0c0.121,0 0.214,-0.102 0.216,-0.222c0.097,-4.113 2.865,-6.058 3.527,-6.608c0.844,-0.7 0.386,-1.506 -0.169,-1.811c1.34,-1.676 2.726,-3.186 3.357,-4.234c1.58,-2.603 0.127,-8.833 -7.72,-6.889Z" style="fill:#009ac5;"/></g></g></svg>