<?xml version="1.0" encoding="UTF-8" standalone="no"?>
<!DOCTYPE svg  PUBLIC '-//W3C//DTD SVG 1.1//EN'  'http://www.w3.org/Graphics/SVG/1.1/DTD/svg11.dtd'>
<svg stroke-linejoin="round" xmlns="http://www.w3.org/2000/svg" xml:space="preserve" height="100%" width="100%" version="1.1" stroke-miterlimit="1.4142" clip-rule="evenodd" xmlns:xlink="http://www.w3.org/1999/xlink" viewBox="0 0 151 150"><path id="path14" fill="#5ca733" d="m123.52 20.543l27.018-20.543-105.67 12.9 0.066 15.268 78.589-7.625"/><path id="path16" fill="#7bcb3a" d="m123.52 20.543l-3.068 42.124 23.495 4.969 6.591-67.636-27.018 20.543"/><path id="path18" fill="#5ca733" d="m45.007 46.713l-42.982 25.886 115.5 30.177 2.92-40.109-75.44-15.954"/><path id="path20" fill="#4a9435" d="m117.53 102.78l26.415-35.14-23.495-4.969-2.92 40.109"/><path id="path22" fill="#7bcb3a" d="m44.926 28.168l-44.926 4.359 2.025 40.072 42.982-25.886-0.081-18.545"/><path id="path24" fill="#4a9435" d="m44.86 12.9l-44.86 19.627 44.926-4.359-0.066-15.268"/><path id="path26" d="m8.384 119.04h-3.627l-4.574-13.799h3.509l2.879 10.074 2.878-10.074h3.509l-4.574 13.799"/><path id="path28" d="m15.213 105.24h9.995v2.819h-6.605v2.582h6.013v2.819h-6.013v2.76h6.624v2.819h-10.014v-13.799"/><path id="path30" d="m33.083 119.32c-3.312 0-5.54-1.577-5.54-4.356v-0.375h3.253v0.276c0 1.163 0.749 1.873 2.307 1.873 1.399 0 2.326-0.572 2.326-1.636 0-0.611-0.256-1.045-0.946-1.223l-3.45-0.867c-2.149-0.532-3.253-1.478-3.253-3.726 0-2.74 1.952-4.317 5.224-4.317 3.095 0 5.067 1.676 5.067 4.199v0.336h-3.135v-0.237c0-0.927-0.513-1.696-1.932-1.696-1.182 0-1.932 0.414-1.932 1.4 0 0.65 0.335 0.986 0.887 1.123l3.667 0.987c2.208 0.591 3.095 1.813 3.095 3.725 0 2.76-2.445 4.514-5.638 4.514"/><path id="path32" d="m50.921 105.24v2.859h-3.725v10.94h-3.391v-10.94h-3.726v-2.859h10.842"/><path id="path34" d="m53.432 105.24h9.995v2.819h-6.604v2.582h6.012v2.819h-6.012v2.76h6.623v2.819h-10.014v-13.799"/><path id="path36" d="m72.502 107.96h-2.701v4.297h2.701c1.419 0 2.168-0.848 2.168-2.109 0-1.321-0.749-2.188-2.168-2.188zm-0.473 6.978h-2.228v4.1h-3.39v-13.799h6.485c3.352 0 5.165 2.05 5.165 4.869 0 1.972-0.966 3.509-2.563 4.278l2.819 4.652h-3.942l-2.346-4.1"/><path id="path38" d="m89.087 110.01c-0.059-1.163-0.966-2.248-2.622-2.248-1.893 0-2.859 1.045-2.859 3.233v2.169c0 1.991 0.789 3.43 2.859 3.43 1.597 0 2.602-0.907 2.661-2.188h-2.681v-2.74h6.013v1.951c0 3.45-2.524 5.697-6.072 5.697-4.101 0-6.17-2.759-6.17-6.229v-1.932c0-3.844 2.405-6.19 6.151-6.19 3.686 0 5.874 2.11 5.952 5.047h-3.232"/><path id="path40" d="m98.572 113.76h3.331l-1.656-5.46-1.675 5.46zm4.159 2.721h-4.988l-0.769 2.562h-3.39l4.928-13.799h3.47l4.928 13.799h-3.39l-0.789-2.562"/><path id="path42" d="m113.52 113.76h3.331l-1.656-5.46-1.675 5.46zm4.159 2.721h-4.987l-0.769 2.562h-3.39l4.927-13.799h3.47l4.928 13.799h-3.39l-0.789-2.562"/><path id="path44" d="m130.04 107.96h-2.7v4.297h2.7c1.42 0 2.168-0.848 2.168-2.109 0-1.321-0.748-2.188-2.168-2.188zm-0.473 6.978h-2.227v4.1h-3.392v-13.799h6.486c3.352 0 5.166 2.05 5.166 4.869 0 1.972-0.966 3.509-2.563 4.278l2.819 4.652h-3.943l-2.346-4.1"/><path id="path46" d="m146.96 110.7c0-1.755-0.927-2.681-2.977-2.681h-2.05v8.24h2.05c2.05 0 2.977-0.927 2.977-2.681v-2.878zm-2.366-5.461c3.804 0 5.756 2.307 5.756 5.48v2.839c0 3.174-1.952 5.48-5.756 5.48h-6.032v-13.799h6.032"/><path id="path48" d="m0.953 124.68h1.537v6.19h7.294v-6.19h1.538v13.799h-1.538v-6.229h-7.294v6.229h-1.537v-13.799"/><path id="path50" d="m14.793 133.83v-9.147h1.537v9.285c0 2.148 1.439 3.509 3.765 3.509s3.766-1.361 3.766-3.509v-9.285h1.537v9.147c0 2.858-2.03 4.928-5.303 4.928-3.272 0-5.302-2.07-5.302-4.928"/><path id="path52" d="m28.435 134.65v-0.354h1.459v0.315c0 1.735 1.399 2.917 3.686 2.917 2.267 0 3.647-0.985 3.647-2.739 0-1.124-0.69-1.913-1.971-2.248l-3.903-1.025c-1.992-0.512-2.74-1.676-2.74-3.253 0-2.445 1.932-3.864 4.77-3.864 2.839 0 4.83 1.598 4.83 3.943v0.336h-1.439v-0.296c0-1.637-1.262-2.76-3.391-2.76-1.932 0-3.291 0.887-3.291 2.524 0 1.143 0.532 1.793 1.714 2.109l4.002 1.064c1.695 0.454 2.898 1.578 2.898 3.352 0 2.522-2.188 4.08-5.126 4.08-2.937 0-5.145-1.577-5.145-4.101"/><path id="path54" d="m41.703 124.68h9.108v1.281h-7.571v4.889h6.999v1.281h-6.999v5.066h7.59v1.282h-9.127v-13.799"/><path id="path56" d="m54.497 135.65h-0.954v-0.289h2.256v0.289h-0.954v2.833h-0.348v-2.833"/><path id="path58" d="m59.041 138.48h-0.33v-2.453l-0.86 1.7h-0.331l-0.861-1.7v2.453h-0.33v-3.122h0.326l1.03 2.06 1.031-2.06h0.325v3.122"/></svg>
