<?xml version="1.0" encoding="UTF-8" standalone="no"?>
<!DOCTYPE svg PUBLIC "-//W3C//DTD SVG 1.1//EN" "http://www.w3.org/Graphics/SVG/1.1/DTD/svg11.dtd">
<svg width="100%" height="100%" viewBox="0 0 217 233" version="1.1" xmlns="http://www.w3.org/2000/svg" xmlns:xlink="http://www.w3.org/1999/xlink" xml:space="preserve" xmlns:serif="http://www.serif.com/" style="fill-rule:evenodd;clip-rule:evenodd;stroke-linejoin:round;stroke-miterlimit:1.41421;">
    <path d="M211.807,139.088C208.626,155.454 183.315,173.365 154.245,176.836C139.086,178.645 124.161,180.308 108.246,179.578C82.219,178.385 61.681,173.365 61.681,173.365C61.681,175.899 61.837,178.311 62.15,180.568C65.534,206.254 87.62,207.792 108.541,208.51C129.657,209.232 148.46,203.304 148.46,203.304L149.327,222.394C149.327,222.394 134.557,230.325 108.246,231.784C93.737,232.581 75.722,231.419 54.74,225.865C9.232,213.82 1.406,165.311 0.209,116.091C-0.156,101.478 0.069,87.698 0.069,76.173C0.069,25.843 33.045,11.09 33.045,11.09C49.672,3.454 78.204,0.243 107.865,0L108.594,0C138.255,0.243 166.805,3.454 183.431,11.09C183.431,11.09 216.406,25.843 216.406,76.173C216.406,76.173 216.82,113.306 211.807,139.088ZM177.51,141.018L177.51,80.077C177.51,67.622 174.339,57.725 167.97,50.402C161.4,43.079 152.797,39.326 142.12,39.326C129.764,39.326 120.407,44.075 114.222,53.573L108.207,63.655L102.194,53.573C96.007,44.075 86.651,39.326 74.296,39.326C63.617,39.326 55.015,43.08 48.446,50.402C42.076,57.725 38.905,67.622 38.905,80.077L38.905,141.018L63.049,141.018L63.049,81.868C63.049,69.4 68.295,63.071 78.789,63.071C90.391,63.071 96.207,70.578 96.207,85.423L96.207,117.799L120.209,117.799L120.209,85.423C120.209,70.578 126.024,63.071 137.626,63.071C148.12,63.071 153.366,69.399 153.366,81.868L153.366,141.018L177.51,141.018Z" style="fill:rgb(43,144,217);fill-rule:nonzero;"/>
</svg>
