<?xml version="1.0" encoding="UTF-8" standalone="no"?>
<!DOCTYPE svg  PUBLIC '-//W3C//DTD SVG 1.1//EN'  'http://www.w3.org/Graphics/SVG/1.1/DTD/svg11.dtd'>
<svg stroke-linejoin="round" xmlns="http://www.w3.org/2000/svg" fill-rule="evenodd" xml:space="preserve" height="100%" width="100%" version="1.1" stroke-miterlimit="1.4142" clip-rule="evenodd" xmlns:xlink="http://www.w3.org/1999/xlink" viewBox="0 0 437 346"><rect height="107.68" width="14.696" y="81.43" x="162.85" fill="#3680bd"/><path d="m370.22 189.14v0.184l-0.002 0.206-0.003 0.205-0.005 0.205-0.006 0.205-0.007 0.205-0.009 0.206-0.01 0.204-0.011 0.204-0.012 0.204-0.014 0.203-0.015 0.204-0.016 0.203-0.018 0.203-0.019 0.201-0.02 0.203-0.021 0.201-0.023 0.202-0.024 0.201-0.025 0.2-0.026 0.2-0.028 0.201-0.029 0.199-0.03 0.199-0.032 0.199-0.032 0.198-0.034 0.198-0.035 0.198-0.036 0.197-0.038 0.197-0.039 0.197-0.04 0.196-0.04 0.195-0.043 0.195-0.043 0.195-0.045 0.195-0.046 0.194-0.047 0.193-0.048 0.192-0.049 0.193-0.051 0.193-0.052 0.191-0.053 0.191-0.054 0.19-0.055 0.191-0.056 0.19-0.058 0.189-0.058 0.189-0.06 0.188-0.061 0.187-0.062 0.188-0.063 0.187-0.064 0.186-0.065 0.185-0.067 0.185-0.067 0.185-0.069 0.184-0.069 0.183-0.071 0.183-0.072 0.183-0.073 0.183-0.074 0.18-0.075 0.181-0.076 0.181-0.077 0.178-0.079 0.18-0.079 0.179-0.08 0.177-0.082 0.178-0.082 0.177-0.083 0.176-0.085 0.176-0.086 0.175-0.086 0.173-0.087 0.174-0.089 0.174-0.09 0.173-0.09 0.171-0.092 0.171-0.092 0.171-0.094 0.17-0.094 0.17-0.096 0.168-0.096 0.168-0.097 0.167-0.099 0.168-0.1 0.166-0.1 0.165-0.101 0.165-0.103 0.165-0.102 0.162-0.105 0.164-0.105 0.162-0.106 0.161-0.107 0.162-0.108 0.159-0.108 0.16-0.11 0.159-0.111 0.158-0.111 0.157-0.113 0.157-0.113 0.156-0.114 0.155-0.116 0.155-0.115 0.153-0.117 0.153-0.118 0.153-0.119 0.152-0.12 0.15-0.12 0.151-0.122 0.149-0.122 0.149-0.122 0.147-0.124 0.147-0.126 0.148-0.125 0.145-0.126 0.144-0.128 0.145-0.128 0.143-0.129 0.143-0.13 0.142-0.13 0.141-0.132 0.14-0.132 0.139-0.133 0.139-0.134 0.139-0.135 0.137-0.135 0.135-0.137 0.136-0.137 0.135-0.137 0.134-0.139 0.133-0.14 0.133-0.14 0.131-0.141 0.13-0.142 0.13-0.142 0.129-0.144 0.128-0.144 0.128-0.145 0.126-0.146 0.126-0.146 0.124-0.147 0.124-0.148 0.123-0.149 0.123-0.149 0.121-0.151 0.12-0.15 0.12-0.152 0.119-0.153 0.117-0.153 0.118-0.153 0.115-0.155 0.115-0.155 0.115-0.156 0.113-0.157 0.112-0.157 0.112-0.158 0.111-0.159 0.109-0.16 0.11-0.16 0.107-0.16 0.107-0.162 0.106-0.162 0.105-0.163 0.104-0.164 0.104-0.164 0.102-0.165 0.101-0.165 0.1-0.166 0.1-0.167 0.098-0.168 0.098-0.167 0.096-0.169 0.096-0.17 0.094-0.17 0.094-0.17 0.092-0.172 0.092-0.172 0.09-0.172 0.09-0.174 0.088-0.173 0.088-0.175 0.086-0.174 0.086-0.176 0.085-0.176 0.083-0.177 0.082-0.177 0.082-0.178 0.08-0.179 0.079-0.179 0.078-0.18 0.078-0.18 0.076-0.181 0.075-0.181 0.074-0.182 0.073-0.182 0.072-0.183 0.07-0.184 0.07-0.184 0.069-0.185 0.067-0.184 0.066-0.186 0.066-0.187 0.064-0.186 0.063-0.188 0.062-0.188 0.061-0.188 0.06-0.188 0.058-0.189 0.058-0.19 0.056-0.19 0.055-0.191 0.054-0.191 0.053-0.192 0.052-0.192 0.05-0.192 0.05-0.193 0.048-0.194 0.047-0.193 0.046-0.195 0.045-0.195 0.043-0.195 0.042-0.196 0.042-0.195 0.039-0.197 0.039-0.197 0.038-0.197 0.036-0.198 0.035-0.197 0.034-0.199 0.032-0.199 0.032-0.199 0.03-0.2 0.029-0.2 0.028-0.199 0.026-0.202 0.025-0.201 0.024-0.201 0.023-0.201 0.021-0.202 0.02-0.203 0.019-0.202 0.018-0.203 0.016-0.203 0.015-0.204 0.014-0.204 0.012-0.204 0.011-0.205 0.01-0.204 0.009-0.205 0.007-0.206 0.006-0.205 0.004-0.205 0.004-0.206 0.002h-0.183l-0.048-14.696h0.136l0.112-0.002 0.111-0.001 0.111-0.003 0.111-0.003 0.111-0.004 0.111-0.005 0.11-0.005 0.11-0.006 0.11-0.007 0.109-0.007 0.11-0.008 0.109-0.009 0.109-0.009 0.109-0.01 0.108-0.011 0.109-0.012 0.109-0.012 0.108-0.013 0.107-0.013 0.108-0.015 0.107-0.014 0.107-0.016 0.108-0.016 0.106-0.017 0.106-0.017 0.107-0.019 0.106-0.019 0.106-0.019 0.106-0.02 0.105-0.021 0.106-0.021 0.105-0.022 0.104-0.023 0.104-0.023 0.105-0.024 0.104-0.025 0.104-0.025 0.103-0.026 0.104-0.027 0.103-0.027 0.103-0.028 0.103-0.028 0.102-0.029 0.103-0.03 0.101-0.03 0.102-0.031 0.102-0.031 0.101-0.033 0.101-0.032 0.101-0.034 0.101-0.034 0.099-0.034 0.1-0.035 0.1-0.036 0.1-0.037 0.099-0.037 0.099-0.037 0.099-0.038 0.099-0.039 0.097-0.039 0.099-0.04 0.098-0.041 0.097-0.041 0.097-0.042 0.097-0.042 0.096-0.043 0.096-0.043 0.096-0.045 0.096-0.044 0.096-0.045 0.094-0.046 0.095-0.046 0.095-0.047 0.094-0.048 0.094-0.048 0.094-0.048 0.093-0.05 0.093-0.049 0.093-0.051 0.093-0.051 0.091-0.051 0.092-0.052 0.092-0.052 0.091-0.053 0.09-0.054 0.091-0.054 0.09-0.055 0.09-0.055 0.09-0.056 0.089-0.056 0.089-0.057 0.088-0.057 0.088-0.058 0.088-0.058 0.088-0.059 0.086-0.059 0.087-0.06 0.087-0.061 0.085-0.061 0.086-0.061 0.086-0.063 0.084-0.062 0.085-0.063 0.084-0.064 0.084-0.063 0.083-0.065 0.083-0.065 0.083-0.065 0.082-0.066 0.082-0.067 0.081-0.067 0.081-0.067 0.081-0.068 0.08-0.068 0.08-0.069 0.08-0.07 0.079-0.069 0.078-0.07 0.079-0.071 0.077-0.071 0.078-0.072 0.077-0.072 0.076-0.073 0.076-0.072 0.076-0.074 0.075-0.074 0.074-0.074 0.075-0.075 0.074-0.076 0.073-0.075 0.073-0.076 0.073-0.076 0.072-0.078 0.072-0.077 0.071-0.078 0.071-0.078 0.07-0.078 0.069-0.079 0.07-0.08 0.069-0.08 0.068-0.079 0.068-0.081 0.068-0.082 0.067-0.081 0.066-0.082 0.066-0.082 0.066-0.083 0.064-0.083 0.065-0.083 0.064-0.084 0.063-0.084 0.063-0.085 0.063-0.085 0.062-0.085 0.061-0.085 0.061-0.086 0.061-0.087 0.059-0.086 0.06-0.088 0.059-0.087 0.058-0.088 0.058-0.088 0.057-0.088 0.057-0.089 0.057-0.09 0.055-0.089 0.055-0.09 0.055-0.09 0.054-0.091 0.053-0.09 0.054-0.091 0.052-0.092 0.052-0.092 0.052-0.092 0.05-0.092 0.051-0.093 0.05-0.093 0.049-0.094 0.048-0.093 0.048-0.094 0.048-0.094 0.047-0.095 0.046-0.095 0.046-0.095 0.045-0.095 0.045-0.096 0.044-0.096 0.043-0.097 0.043-0.095 0.042-0.097 0.042-0.098 0.041-0.097 0.041-0.098 0.04-0.098 0.039-0.098 0.039-0.098 0.038-0.099 0.038-0.099 0.036-0.099 0.037-0.1 0.036-0.099 0.035-0.101 0.035-0.1 0.033-0.1 0.034-0.101 0.033-0.101 0.032-0.102 0.031-0.101 0.031-0.102 0.03-0.101 0.03-0.102 0.029-0.104 0.028-0.102 0.028-0.103 0.027-0.103 0.027-0.103 0.026-0.104 0.025-0.105 0.025-0.104 0.024-0.103 0.023-0.104 0.023-0.105 0.022-0.106 0.021-0.105 0.021-0.105 0.02-0.106 0.02-0.106 0.018-0.106 0.018-0.106 0.018-0.107 0.017-0.107 0.016-0.107 0.016-0.107 0.015-0.107 0.014-0.107 0.013-0.109 0.013-0.108 0.012-0.108 0.012-0.109 0.011-0.108 0.01-0.109 0.009-0.109 0.009-0.109 0.008-0.11 0.008-0.11 0.006-0.109 0.006-0.11 0.006-0.111 0.004-0.11 0.004-0.111 0.003-0.111 0.003-0.111 0.002-0.112 0.001-0.111v-0.135l14.696 0.046z" fill="#3680bd"/><path d="m267.57 8.782l0.251 0.003 0.251 0.004 0.25 0.006 0.248 0.008 0.248 0.01 0.247 0.012 0.245 0.013 0.245 0.015 0.243 0.017 0.242 0.018 0.241 0.02 0.24 0.022 0.239 0.023 0.238 0.025 0.237 0.026 0.235 0.028 0.235 0.029 0.233 0.031 0.232 0.033 0.231 0.033 0.23 0.036 0.228 0.036 0.227 0.038 0.226 0.039 0.225 0.041 0.224 0.041 0.222 0.043 0.222 0.045 0.22 0.045 0.218 0.047 0.218 0.048 0.216 0.048 0.215 0.05 0.213 0.052 0.213 0.052 0.211 0.053 0.21 0.054 0.208 0.055 0.208 0.056 0.206 0.057 0.204 0.058 0.204 0.059 0.202 0.06 0.201 0.06 0.199 0.062 0.198 0.062 0.197 0.063 0.196 0.063 0.194 0.065 0.192 0.065 0.192 0.065 0.19 0.067 0.189 0.067 0.188 0.067 0.186 0.068 0.184 0.069 0.184 0.069 0.182 0.07 0.181 0.07 0.179 0.071 0.178 0.071 0.177 0.072 0.175 0.071 0.174 0.073 0.173 0.072 0.171 0.073 0.17 0.073 0.168 0.074 0.168 0.074 0.165 0.074 0.165 0.074 0.163 0.074 0.161 0.075 0.16 0.074 0.159 0.075 0.158 0.075 0.162 0.078 0.301 0.147 0.302 0.15 0.297 0.15 0.291 0.15 0.285 0.149 0.279 0.148 0.274 0.148 0.267 0.146 0.262 0.145 0.256 0.144 0.25 0.142 0.244 0.14 0.237 0.138 0.232 0.136 0.225 0.133 0.219 0.131 0.212 0.128 0.206 0.125 0.202 0.124 0.372 0.229 0.35 0.217 1.404 0.874 1.435 0.894 1.471 0.918 1.507 0.942 1.543 0.965 1.577 0.988 1.612 1.012 1.646 1.035 1.681 1.057 1.713 1.081 1.747 1.103 1.78 1.126 1.812 1.148 1.845 1.171 1.876 1.193 1.908 1.215 1.938 1.238 1.969 1.26 2 1.281 2.029 1.303 1.026 0.66 1.034 0.665 1.04 0.671 1.048 0.676 1.055 0.682 1.062 0.686 1.07 0.692 1.076 0.698 1.084 0.703 1.09 0.708 1.098 0.713 1.104 0.719 1.112 0.724 1.118 0.729 1.125 0.735 1.131 0.739 1.139 0.745 1.145 0.751 1.151 0.755 1.158 0.761 1.165 0.765 1.171 0.771 1.178 0.776 1.182 0.78-8.094 12.267-1.179-0.778-1.171-0.771-1.164-0.767-1.158-0.761-1.152-0.757-1.145-0.751-1.138-0.746-1.132-0.74-1.125-0.736-1.119-0.73-1.112-0.725-1.105-0.72-1.098-0.715-1.091-0.709-1.085-0.704-1.077-0.699-1.07-0.694-1.064-0.688-1.056-0.683-1.049-0.677-1.042-0.673-1.035-0.666-1.027-0.662-1.02-0.656-2.019-1.296-1.988-1.274-1.958-1.253-1.928-1.231-1.897-1.208-1.866-1.187-1.834-1.164-1.802-1.142-1.77-1.12-1.738-1.097-1.705-1.075-1.671-1.052-1.638-1.029-1.603-1.006-1.57-0.984-1.534-0.96-1.5-0.937-1.464-0.914-1.429-0.89-1.388-0.864-0.318-0.197-0.331-0.204-0.163-0.1-0.168-0.102-0.171-0.103-0.173-0.103-0.175-0.104-0.178-0.104-0.179-0.105-0.183-0.105-0.184-0.105-0.188-0.105-0.189-0.105-0.192-0.105-0.195-0.105-0.197-0.105-0.2-0.104-0.201-0.104-0.204-0.103-0.207-0.103-0.215-0.105-0.1-0.047-0.106-0.051-0.106-0.05-0.107-0.05-0.108-0.049-0.108-0.05-0.109-0.049-0.109-0.049-0.11-0.048-0.11-0.048-0.111-0.048-0.112-0.048-0.112-0.047-0.112-0.047-0.114-0.046-0.113-0.046-0.115-0.046-0.114-0.045-0.115-0.045-0.116-0.044-0.116-0.044-0.117-0.043-0.117-0.043-0.118-0.042-0.118-0.042-0.119-0.042-0.119-0.041-0.12-0.04-0.12-0.04-0.121-0.039-0.121-0.039-0.122-0.038-0.121-0.037-0.123-0.037-0.123-0.037-0.124-0.036-0.123-0.035-0.125-0.034-0.125-0.034-0.125-0.033-0.126-0.032-0.126-0.032-0.126-0.031-0.127-0.031-0.128-0.029-0.128-0.029-0.128-0.028-0.129-0.028-0.129-0.027-0.13-0.025-0.13-0.026-0.13-0.024-0.131-0.024-0.131-0.022-0.132-0.022-0.133-0.021-0.132-0.021-0.133-0.019-0.134-0.019-0.134-0.018-0.134-0.016-0.135-0.016-0.136-0.016-0.135-0.014-0.137-0.013-0.136-0.012-0.138-0.012-0.137-0.01-0.138-0.01-0.139-0.008-0.139-0.008-0.14-0.006-0.14-0.006-0.14-0.004-0.141-0.004-0.142-0.002-0.142-0.002h-0.142l-0.143 0.001-0.144 0.001-0.144 0.003-0.148 0.004-0.137 0.005-0.134 0.006-0.135 0.006-0.133 0.008-0.133 0.008-0.133 0.009-0.132 0.01-0.131 0.011-0.131 0.012-0.13 0.013-0.13 0.014-0.13 0.014-0.128 0.015-0.129 0.016-0.127 0.017-0.128 0.018-0.126 0.018-0.127 0.019-0.125 0.02-0.126 0.021-0.124 0.021-0.124 0.023-0.124 0.023-0.123 0.023-0.123 0.024-0.122 0.025-0.122 0.026-0.121 0.027-0.12 0.027-0.121 0.027-0.119 0.029-0.119 0.029-0.119 0.029-0.118 0.03-0.117 0.031-0.117 0.032-0.117 0.032-0.116 0.032-0.116 0.033-0.114 0.034-0.115 0.034-0.114 0.035-0.113 0.035-0.113 0.036-0.113 0.036-0.111 0.037-0.112 0.037-0.11 0.038-0.111 0.038-0.109 0.039-0.109 0.039-0.109 0.039-0.108 0.04-0.107 0.041-0.107 0.04-0.107 0.041-0.105 0.042-0.106 0.042-0.104 0.042-0.104 0.042-0.104 0.043-0.103 0.043-0.102 0.044-0.102 0.044-0.101 0.044-0.1 0.044-0.1 0.045-0.1 0.044-0.098 0.045-0.098 0.046-0.098 0.045-0.09 0.043-0.199 0.095-0.19 0.093-0.187 0.093-0.184 0.094-0.182 0.094-0.179 0.094-0.177 0.095-0.174 0.094-0.172 0.095-0.169 0.095-0.166 0.095-0.163 0.094-0.162 0.094-0.158 0.094-0.156 0.093-0.153 0.093-0.151 0.092-0.149 0.092-0.145 0.09-0.144 0.091-0.142 0.089-0.135 0.087-0.278 0.178-0.266 0.172-0.261 0.169-0.595 0.386-0.611 0.395-0.625 0.403-0.638 0.41-0.651 0.417-0.665 0.424-0.677 0.432-0.691 0.439-0.703 0.446-0.716 0.454-0.73 0.46-0.742 0.468-0.755 0.476-0.768 0.482-0.78 0.49-0.793 0.497-0.806 0.504-0.819 0.512-1.674 1.043-1.724 1.073-1.773 1.101-1.822 1.129-1.871 1.158-1.918 1.185-1.966 1.214-2.013 1.241-2.06 1.269-2.105 1.296-2.151 1.324-4.437 2.729-4.614 2.837-4.787 2.943-4.956 3.048-2.539 1.563-2.581 1.588-2.621 1.615-2.662 1.64-7.711-12.511 2.664-1.641 2.624-1.617 2.583-1.59 2.543-1.565 4.958-3.049 4.788-2.944 4.613-2.836 4.434-2.727 2.148-1.322 2.102-1.294 2.055-1.266 2.008-1.239 1.96-1.209 1.911-1.182 1.862-1.152 1.813-1.124 1.763-1.094 1.712-1.066 1.662-1.036 0.81-0.506 0.798-0.499 0.785-0.492 0.772-0.484 0.759-0.477 0.745-0.469 0.732-0.462 0.719-0.454 0.704-0.446 0.692-0.438 0.677-0.431 0.664-0.423 0.65-0.415 0.636-0.408 0.622-0.399 0.607-0.392 0.594-0.383 0.582-0.378 0.267-0.173 0.298-0.193 0.322-0.207 0.178-0.113 0.181-0.114 0.187-0.118 0.194-0.121 0.201-0.123 0.206-0.127 0.213-0.128 0.219-0.131 0.225-0.133 0.23-0.135 0.237-0.136 0.243-0.138 0.248-0.14 0.254-0.14 0.26-0.141 0.265-0.142 0.271-0.143 0.277-0.143 0.282-0.144 0.288-0.143 0.293-0.144 0.292-0.14 0.159-0.074 0.152-0.071 0.155-0.072 0.155-0.071 0.157-0.07 0.159-0.071 0.159-0.07 0.161-0.071 0.163-0.069 0.163-0.07 0.165-0.069 0.167-0.069 0.168-0.069 0.169-0.068 0.17-0.068 0.172-0.067 0.173-0.067 0.175-0.066 0.175-0.066 0.178-0.066 0.178-0.065 0.18-0.064 0.181-0.064 0.182-0.063 0.184-0.063 0.185-0.062 0.187-0.061 0.187-0.061 0.189-0.059 0.19-0.06 0.192-0.058 0.193-0.058 0.194-0.056 0.195-0.057 0.197-0.055 0.198-0.054 0.199-0.053 0.201-0.053 0.202-0.052 0.202-0.05 0.205-0.05 0.205-0.049 0.207-0.047 0.208-0.047 0.209-0.046 0.211-0.044 0.212-0.043 0.213-0.043 0.214-0.041 0.215-0.04 0.217-0.038 0.218-0.038 0.219-0.036 0.22-0.035 0.221-0.034 0.222-0.032 0.224-0.031 0.225-0.029 0.226-0.029 0.227-0.027 0.228-0.025 0.23-0.024 0.23-0.023 0.232-0.021 0.232-0.019 0.234-0.018 0.235-0.016 0.236-0.015 0.237-0.013 0.238-0.012 0.239-0.01 0.238-0.008 0.253-0.007 0.256-0.005 0.254-0.003 0.254-0.002 0.253 0.001z" fill="#3680bd"/><path d="m192.81 66.088l-0.275 0.161-0.305 0.177-0.311 0.18-0.325 0.19-0.16 0.095-0.168 0.099-0.17 0.101-0.173 0.105-0.176 0.107-0.18 0.111-0.183 0.113-0.251 0.158-1.37 0.833-0.627 0.381-0.605 0.369-0.583 0.356-0.56 0.343-0.539 0.332-0.517 0.319-0.495 0.308-0.477 0.299-0.226 0.142-0.224 0.142-0.218 0.138-0.213 0.136-0.207 0.133-0.202 0.131-0.196 0.128-0.192 0.125-0.185 0.123-0.181 0.12-0.175 0.117-0.17 0.114-0.164 0.112-0.159 0.11-0.153 0.106-0.149 0.104-0.143 0.102-0.137 0.098-0.132 0.096-0.126 0.094-0.122 0.09-0.116 0.088-0.11 0.084-0.105 0.082-0.1 0.079-0.095 0.077-0.089 0.073-0.084 0.07-0.079 0.067-0.074 0.064-0.069 0.061-0.064 0.057-0.059 0.055-0.054 0.051-0.049 0.047-0.045 0.045-0.04 0.041-0.036 0.038-0.033 0.034-0.028 0.031-0.024 0.027-0.021 0.025-0.017 0.021-0.02 0.024-0.016 0.02-0.029 0.038-0.029 0.039-0.03 0.04-0.03 0.041-0.03 0.042-0.031 0.043-0.031 0.045-0.03 0.045-0.032 0.047-0.031 0.048-0.032 0.05-0.032 0.051-0.032 0.053-0.033 0.055-0.033 0.056-0.033 0.058-0.033 0.059-0.034 0.062-0.033 0.063-0.034 0.066-0.034 0.067-0.034 0.07-0.034 0.071-0.035 0.073-0.034 0.077-0.034 0.078-0.034 0.08-0.035 0.083-0.034 0.086-0.034 0.088-0.033 0.09-0.034 0.093-0.034 0.097-0.033 0.098-0.033 0.102-0.032 0.104-0.032 0.108-0.035 0.121-0.013 0.046-0.015 0.057-0.015 0.058-0.016 0.059-0.015 0.059-0.014 0.06-0.015 0.062-0.015 0.062-0.014 0.063-0.015 0.064-0.014 0.064-0.013 0.066-0.014 0.066-0.014 0.068-0.013 0.068-0.013 0.069-0.012 0.069-0.013 0.071-0.012 0.072-0.012 0.073-0.012 0.073-0.011 0.075-0.011 0.075-0.011 0.077-0.011 0.077-0.01 0.078-0.01 0.08-0.01 0.08-0.009 0.081-0.009 0.082-0.009 0.084-0.008 0.084-0.008 0.085-0.007 0.087-0.007 0.087-0.007 0.088-0.006 0.09-0.006 0.09-0.006 0.092-0.005 0.092-0.005 0.094-0.004 0.094-0.003 0.096-0.004 0.097-0.003 0.098-0.002 0.099-0.002 0.101-0.001 0.101-0.001 0.102v0.123l-14.696-0.039v-0.159l0.001-0.178 0.003-0.178 0.003-0.176 0.004-0.175 0.005-0.175 0.006-0.174 0.006-0.172 0.008-0.173 0.008-0.171 0.01-0.17 0.01-0.17 0.011-0.168 0.012-0.168 0.013-0.167 0.013-0.166 0.015-0.165 0.015-0.165 0.016-0.164 0.017-0.162 0.017-0.162 0.019-0.161 0.019-0.16 0.02-0.159 0.021-0.158 0.021-0.158 0.022-0.157 0.023-0.155 0.024-0.155 0.025-0.154 0.025-0.154 0.026-0.152 0.027-0.151 0.027-0.151 0.028-0.15 0.029-0.149 0.03-0.148 0.03-0.147 0.031-0.146 0.031-0.145 0.033-0.145 0.033-0.144 0.033-0.142 0.034-0.141 0.035-0.142 0.036-0.14 0.036-0.139 0.036-0.138 0.037-0.138 0.041-0.146 0.074-0.26 0.08-0.267 0.082-0.263 0.083-0.259 0.086-0.256 0.088-0.252 0.09-0.248 0.091-0.245 0.093-0.241 0.095-0.237 0.096-0.233 0.098-0.23 0.099-0.226 0.1-0.222 0.101-0.218 0.103-0.215 0.103-0.211 0.105-0.207 0.105-0.203 0.106-0.199 0.106-0.196 0.107-0.191 0.107-0.188 0.108-0.184 0.108-0.179 0.107-0.177 0.108-0.172 0.108-0.168 0.107-0.165 0.107-0.16 0.107-0.157 0.105-0.153 0.105-0.148 0.104-0.145 0.103-0.141 0.102-0.137 0.101-0.133 0.099-0.129 0.112-0.142 0.153-0.191 0.162-0.195 0.163-0.191 0.166-0.188 0.168-0.184 0.169-0.182 0.171-0.178 0.173-0.176 0.175-0.172 0.176-0.17 0.177-0.168 0.179-0.165 0.18-0.163 0.182-0.16 0.183-0.159 0.185-0.157 0.186-0.155 0.187-0.154 0.19-0.152 0.191-0.151 0.192-0.15 0.195-0.149 0.196-0.148 0.198-0.148 0.2-0.147 0.202-0.147 0.204-0.147 0.206-0.146 0.209-0.147 0.211-0.146 0.213-0.147 0.216-0.147 0.219-0.148 0.221-0.148 0.224-0.149 0.227-0.15 0.23-0.15 0.233-0.152 0.236-0.152 0.239-0.154 0.243-0.155 0.246-0.157 0.249-0.157 0.256-0.161 0.513-0.322 0.532-0.331 0.548-0.338 0.563-0.347 0.581-0.355 0.598-0.365 0.615-0.376 0.634-0.385 1.277-0.776 0.188-0.118 0.247-0.154 0.24-0.147 0.232-0.142 0.225-0.135 0.217-0.13 0.208-0.123 0.202-0.119 0.365-0.213 0.326-0.189 0.278-0.161 0.249-0.147 7.429 12.681z" fill="#3680bd"/><rect height="107.68" width="14.696" y="81.43" x="355.53" fill="#3680bd"/><path d="m347.94 53.554l0.278 0.161 0.326 0.189 0.365 0.213 0.202 0.119 0.208 0.123 0.217 0.13 0.225 0.135 0.232 0.142 0.24 0.147 0.247 0.154 0.189 0.118 1.276 0.776 0.634 0.385 0.616 0.376 0.597 0.365 0.581 0.355 0.563 0.347 0.548 0.338 0.532 0.331 0.513 0.322 0.256 0.161 0.249 0.157 0.246 0.157 0.243 0.155 0.239 0.154 0.236 0.152 0.233 0.152 0.23 0.15 0.227 0.15 0.224 0.149 0.221 0.148 0.219 0.148 0.216 0.147 0.213 0.147 0.211 0.146 0.209 0.147 0.206 0.146 0.204 0.147 0.202 0.147 0.2 0.147 0.198 0.147 0.196 0.149 0.195 0.149 0.192 0.15 0.192 0.151 0.188 0.152 0.188 0.154 0.186 0.155 0.185 0.157 0.183 0.159 0.182 0.16 0.18 0.163 0.179 0.165 0.177 0.167 0.177 0.171 0.174 0.172 0.172 0.176 0.172 0.178 0.169 0.182 0.168 0.184 0.165 0.188 0.164 0.191 0.162 0.195 0.153 0.191 0.112 0.142 0.099 0.13 0.101 0.133 0.101 0.136 0.104 0.14 0.104 0.146 0.105 0.148 0.106 0.153 0.106 0.157 0.107 0.16 0.107 0.165 0.108 0.168 0.108 0.172 0.108 0.177 0.107 0.179 0.107 0.184 0.108 0.188 0.107 0.192 0.106 0.194 0.106 0.2 0.105 0.203 0.104 0.207 0.104 0.211 0.103 0.215 0.101 0.217 0.1 0.223 0.099 0.226 0.098 0.229 0.096 0.234 0.095 0.237 0.093 0.241 0.091 0.245 0.09 0.248 0.088 0.252 0.086 0.256 0.083 0.259 0.082 0.263 0.08 0.266 0.074 0.261 0.041 0.146 0.037 0.137 0.036 0.139 0.036 0.139 0.036 0.14 0.035 0.141 0.034 0.142 0.034 0.143 0.032 0.143 0.033 0.145 0.031 0.145 0.031 0.146 0.03 0.148 0.03 0.147 0.029 0.149 0.028 0.149 0.027 0.151 0.027 0.152 0.026 0.153 0.025 0.153 0.025 0.153 0.024 0.156 0.023 0.156 0.022 0.155 0.021 0.159 0.021 0.158 0.02 0.159 0.019 0.161 0.019 0.161 0.017 0.161 0.017 0.162 0.016 0.164 0.015 0.165 0.015 0.165 0.013 0.166 0.013 0.167 0.012 0.168 0.011 0.169 0.01 0.169 0.01 0.17 0.008 0.171 0.008 0.173 0.006 0.173 0.006 0.174 0.005 0.174 0.004 0.175 0.003 0.177 0.003 0.177 0.001 0.177v0.16l-14.696 0.039v-0.122l-0.001-0.104-0.001-0.101-0.002-0.099-0.002-0.1-0.003-0.098-0.004-0.097-0.003-0.095-0.004-0.095-0.005-0.093-0.005-0.093-0.006-0.092-0.006-0.091-0.006-0.089-0.007-0.088-0.007-0.087-0.007-0.087-0.008-0.085-0.008-0.084-0.009-0.083-0.009-0.083-0.009-0.082-0.01-0.079-0.01-0.08-0.01-0.078-0.011-0.077-0.011-0.077-0.011-0.075-0.011-0.074-0.012-0.074-0.012-0.073-0.012-0.072-0.013-0.07-0.012-0.07-0.013-0.069-0.014-0.069-0.013-0.068-0.014-0.065-0.013-0.065-0.014-0.065-0.015-0.064-0.014-0.063-0.015-0.062-0.014-0.061-0.015-0.061-0.015-0.059-0.016-0.059-0.015-0.058-0.015-0.057-0.013-0.047-0.035-0.12-0.032-0.108-0.032-0.105-0.033-0.101-0.033-0.099-0.034-0.096-0.033-0.093-0.034-0.09-0.034-0.088-0.034-0.086-0.034-0.082-0.035-0.082-0.034-0.078-0.034-0.075-0.035-0.075-0.034-0.071-0.034-0.068-0.034-0.068-0.034-0.066-0.033-0.063-0.034-0.062-0.033-0.059-0.033-0.058-0.033-0.056-0.033-0.055-0.032-0.053-0.032-0.051-0.032-0.05-0.031-0.048-0.032-0.047-0.031-0.046-0.03-0.044-0.031-0.043-0.03-0.042-0.03-0.041-0.03-0.041-0.03-0.038-0.028-0.038-0.016-0.019-0.02-0.025-0.017-0.021-0.021-0.024-0.024-0.028-0.029-0.031-0.031-0.034-0.036-0.038-0.041-0.041-0.045-0.045-0.049-0.047-0.054-0.051-0.059-0.055-0.064-0.057-0.069-0.061-0.074-0.064-0.079-0.067-0.084-0.07-0.089-0.073-0.095-0.077-0.099-0.078-0.106-0.082-0.11-0.085-0.116-0.088-0.122-0.091-0.126-0.093-0.132-0.096-0.138-0.098-0.142-0.102-0.149-0.104-0.153-0.106-0.159-0.11-0.164-0.112-0.17-0.114-0.175-0.118-0.181-0.119-0.185-0.123-0.191-0.125-0.197-0.128-0.202-0.131-0.207-0.133-0.213-0.136-0.218-0.138-0.224-0.142-0.226-0.142-0.477-0.299-0.495-0.308-0.517-0.319-0.539-0.332-0.56-0.343-0.583-0.356-0.605-0.369-0.627-0.381-1.37-0.833-0.251-0.158-0.183-0.113-0.18-0.111-0.176-0.107-0.174-0.105-0.17-0.101-0.167-0.099-0.16-0.095-0.325-0.19-0.311-0.18-0.305-0.177-0.275-0.161 7.429-12.681 0.249 0.147z" fill="#3680bd"/><path fill-opacity=".48" fill="#1d1d1b" d="m238.95 37.653l-26.393 16.342-13.702-8.812 26.302-16.26 13.793 8.73z" fill-rule="nonzero"/><rect height="107.68" width="14.696" y="81.43" x="66.501" fill="#41a735"/><path d="m81.197 189.23l0.001 0.112 0.002 0.111 0.003 0.111 0.003 0.111 0.004 0.111 0.004 0.11 0.006 0.111 0.006 0.11 0.007 0.11 0.007 0.109 0.008 0.11 0.009 0.109 0.009 0.109 0.01 0.109 0.011 0.109 0.012 0.108 0.012 0.108 0.013 0.108 0.013 0.108 0.015 0.108 0.014 0.107 0.016 0.107 0.016 0.107 0.017 0.107 0.017 0.107 0.019 0.106 0.018 0.106 0.02 0.106 0.02 0.106 0.021 0.105 0.021 0.105 0.022 0.105 0.023 0.105 0.023 0.104 0.024 0.105 0.025 0.104 0.025 0.104 0.026 0.103 0.027 0.104 0.027 0.103 0.028 0.103 0.028 0.103 0.029 0.102 0.03 0.102 0.03 0.102 0.031 0.102 0.031 0.102 0.033 0.101 0.032 0.101 0.034 0.101 0.034 0.1 0.034 0.101 0.035 0.1 0.036 0.099 0.037 0.1 0.036 0.099 0.038 0.099 0.038 0.099 0.039 0.098 0.039 0.099 0.04 0.097 0.041 0.098 0.041 0.097 0.042 0.098 0.042 0.096 0.043 0.097 0.043 0.096 0.044 0.096 0.045 0.096 0.045 0.095 0.046 0.095 0.046 0.095 0.047 0.095 0.048 0.094 0.048 0.094 0.048 0.094 0.05 0.093 0.049 0.093 0.051 0.093 0.05 0.092 0.052 0.092 0.052 0.092 0.052 0.091 0.053 0.092 0.054 0.091 0.054 0.09 0.055 0.09 0.055 0.09 0.056 0.09 0.056 0.089 0.056 0.088 0.058 0.089 0.058 0.088 0.058 0.088 0.059 0.087 0.059 0.087 0.06 0.087 0.061 0.086 0.061 0.087 0.061 0.085 0.062 0.085 0.063 0.085 0.063 0.085 0.063 0.084 0.064 0.084 0.065 0.083 0.065 0.083 0.065 0.083 0.066 0.082 0.066 0.082 0.068 0.081 0.067 0.081 0.068 0.081 0.068 0.08 0.069 0.08 0.07 0.08 0.069 0.079 0.07 0.078 0.071 0.079 0.071 0.077 0.072 0.077 0.072 0.077 0.072 0.077 0.074 0.076 0.073 0.076 0.074 0.075 0.074 0.075 0.075 0.074 0.075 0.074 0.076 0.073 0.076 0.073 0.076 0.073 0.077 0.072 0.078 0.072 0.078 0.071 0.078 0.071 0.078 0.07 0.079 0.07 0.08 0.069 0.08 0.069 0.08 0.068 0.081 0.068 0.081 0.067 0.081 0.067 0.082 0.067 0.082 0.066 0.083 0.065 0.083 0.065 0.083 0.065 0.084 0.064 0.084 0.063 0.085 0.063 0.084 0.063 0.086 0.062 0.086 0.061 0.086 0.061 0.086 0.061 0.087 0.06 0.086 0.059 0.088 0.059 0.088 0.058 0.088 0.058 0.088 0.057 0.089 0.057 0.089 0.056 0.09 0.056 0.09 0.055 0.09 0.055 0.09 0.054 0.091 0.054 0.091 0.053 0.092 0.052 0.092 0.052 0.091 0.051 0.093 0.052 0.093 0.05 0.093 0.049 0.093 0.049 0.094 0.049 0.094 0.048 0.094 0.048 0.094 0.046 0.095 0.047 0.095 0.046 0.096 0.045 0.096 0.044 0.096 0.045 0.096 0.043 0.096 0.043 0.097 0.042 0.097 0.042 0.098 0.041 0.097 0.041 0.099 0.04 0.098 0.039 0.098 0.039 0.099 0.038 0.099 0.037 0.099 0.037 0.1 0.037 0.1 0.036 0.099 0.035 0.101 0.034 0.1 0.034 0.101 0.034 0.101 0.032 0.101 0.033 0.102 0.031 0.102 0.031 0.101 0.03 0.103 0.03 0.102 0.029 0.103 0.028 0.103 0.028 0.103 0.027 0.104 0.027 0.103 0.026 0.104 0.025 0.104 0.025 0.105 0.024 0.104 0.023 0.104 0.023 0.106 0.022 0.105 0.021 0.105 0.021 0.106 0.02 0.106 0.019 0.106 0.019 0.107 0.019 0.106 0.017 0.106 0.017 0.108 0.016 0.107 0.016 0.107 0.014 0.108 0.015 0.107 0.013 0.108 0.013 0.109 0.012 0.109 0.012 0.108 0.011 0.109 0.01 0.109 0.009 0.109 0.009 0.11 0.008 0.109 0.007 0.11 0.007 0.11 0.006 0.11 0.005 0.111 0.005 0.111 0.004 0.111 0.003 0.111 0.003 0.111 0.001 0.112 0.002h0.136l-0.048 14.696h-0.183l-0.205-0.002-0.206-0.004-0.205-0.004-0.206-0.006-0.205-0.007-0.204-0.009-0.205-0.01-0.204-0.011-0.204-0.012-0.203-0.014-0.204-0.015-0.203-0.016-0.202-0.018-0.203-0.019-0.202-0.02-0.201-0.021-0.201-0.023-0.201-0.024-0.202-0.025-0.199-0.026-0.2-0.028-0.2-0.029-0.199-0.03-0.199-0.032-0.199-0.032-0.197-0.034-0.198-0.035-0.197-0.036-0.197-0.038-0.197-0.039-0.195-0.039-0.196-0.042-0.195-0.042-0.195-0.044-0.195-0.044-0.193-0.046-0.194-0.047-0.193-0.048-0.192-0.05-0.192-0.05-0.192-0.052-0.191-0.053-0.191-0.054-0.19-0.055-0.19-0.056-0.189-0.058-0.189-0.058-0.187-0.06-0.188-0.061-0.188-0.062-0.186-0.063-0.187-0.064-0.185-0.065-0.186-0.067-0.184-0.067-0.184-0.069-0.184-0.07-0.183-0.07-0.182-0.072-0.182-0.073-0.181-0.074-0.181-0.075-0.18-0.076-0.18-0.078-0.179-0.078-0.179-0.079-0.178-0.08-0.177-0.082-0.177-0.082-0.176-0.084-0.175-0.084-0.175-0.085-0.175-0.087-0.174-0.088-0.173-0.088-0.172-0.09-0.172-0.09-0.172-0.092-0.17-0.093-0.17-0.093-0.169-0.094-0.169-0.096-0.168-0.096-0.168-0.098-0.167-0.098-0.166-0.1-0.166-0.1-0.164-0.101-0.164-0.102-0.164-0.104-0.163-0.104-0.162-0.105-0.162-0.106-0.16-0.107-0.16-0.108-0.16-0.109-0.159-0.109-0.158-0.111-0.157-0.112-0.157-0.112-0.156-0.113-0.155-0.114-0.154-0.116-0.154-0.116-0.153-0.117-0.153-0.117-0.151-0.119-0.151-0.12-0.151-0.12-0.149-0.122-0.149-0.122-0.148-0.123-0.147-0.124-0.146-0.124-0.146-0.126-0.145-0.127-0.144-0.127-0.143-0.128-0.143-0.129-0.142-0.13-0.141-0.13-0.14-0.132-0.14-0.132-0.138-0.133-0.138-0.134-0.137-0.135-0.137-0.135-0.135-0.137-0.135-0.137-0.134-0.138-0.133-0.138-0.132-0.14-0.132-0.14-0.13-0.141-0.13-0.142-0.129-0.143-0.128-0.143-0.128-0.144-0.126-0.145-0.126-0.146-0.124-0.146-0.124-0.148-0.123-0.148-0.122-0.148-0.122-0.15-0.12-0.15-0.12-0.151-0.119-0.151-0.117-0.153-0.117-0.153-0.116-0.154-0.116-0.154-0.114-0.155-0.113-0.156-0.113-0.157-0.111-0.157-0.111-0.158-0.11-0.159-0.108-0.16-0.108-0.16-0.107-0.16-0.106-0.162-0.105-0.162-0.105-0.163-0.103-0.164-0.102-0.164-0.101-0.165-0.1-0.165-0.1-0.166-0.098-0.167-0.098-0.168-0.096-0.168-0.096-0.169-0.094-0.169-0.094-0.17-0.092-0.171-0.092-0.171-0.09-0.172-0.09-0.172-0.088-0.173-0.088-0.174-0.087-0.175-0.085-0.175-0.085-0.175-0.083-0.176-0.082-0.177-0.082-0.178-0.08-0.177-0.079-0.179-0.079-0.179-0.077-0.18-0.076-0.18-0.075-0.181-0.074-0.181-0.073-0.182-0.072-0.182-0.07-0.183-0.07-0.184-0.069-0.184-0.067-0.185-0.067-0.185-0.065-0.186-0.064-0.186-0.063-0.186-0.062-0.187-0.061-0.188-0.06-0.189-0.058-0.188-0.058-0.189-0.056-0.19-0.055-0.19-0.054-0.191-0.053-0.191-0.052-0.192-0.05-0.192-0.05-0.192-0.048-0.193-0.047-0.194-0.046-0.194-0.045-0.194-0.043-0.195-0.042-0.195-0.042-0.195-0.039-0.197-0.039-0.196-0.038-0.197-0.036-0.197-0.035-0.198-0.034-0.198-0.032-0.198-0.032-0.199-0.03-0.199-0.029-0.2-0.028-0.2-0.026-0.2-0.025-0.201-0.024-0.2-0.023-0.202-0.021-0.201-0.02-0.202-0.019-0.203-0.018-0.202-0.016-0.203-0.015-0.204-0.014-0.203-0.012-0.204-0.011-0.204-0.01-0.204-0.009-0.205-0.007-0.205-0.006-0.205-0.005-0.206-0.003-0.206-0.002-0.206v-0.182l14.696-0.048v0.136z" fill="#41a735"/><path d="m273.89 189.14l-0.001 0.183-0.002 0.205-0.003 0.206-0.005 0.205-0.005 0.206-0.008 0.205-0.008 0.204-0.01 0.205-0.011 0.204-0.013 0.204-0.013 0.203-0.015 0.204-0.017 0.203-0.017 0.202-0.019 0.203-0.02 0.202-0.022 0.201-0.022 0.201-0.024 0.202-0.025 0.2-0.027 0.2-0.028 0.201-0.029 0.199-0.03 0.199-0.031 0.199-0.033 0.198-0.033 0.198-0.036 0.198-0.036 0.197-0.037 0.197-0.039 0.197-0.04 0.195-0.041 0.196-0.042 0.195-0.044 0.195-0.045 0.195-0.045 0.193-0.047 0.194-0.049 0.193-0.049 0.192-0.051 0.192-0.051 0.192-0.053 0.191-0.054 0.19-0.055 0.191-0.057 0.19-0.057 0.189-0.059 0.188-0.059 0.189-0.061 0.188-0.062 0.187-0.063 0.186-0.065 0.187-0.065 0.185-0.066 0.186-0.068 0.184-0.068 0.184-0.07 0.183-0.071 0.184-0.072 0.182-0.072 0.182-0.074 0.181-0.076 0.181-0.076 0.18-0.077 0.18-0.078 0.179-0.079 0.179-0.081 0.178-0.081 0.177-0.082 0.176-0.084 0.177-0.084 0.175-0.086 0.175-0.086 0.175-0.088 0.174-0.089 0.173-0.089 0.172-0.091 0.172-0.091 0.171-0.093 0.171-0.093 0.17-0.095 0.169-0.095 0.17-0.097 0.167-0.097 0.167-0.098 0.167-0.1 0.167-0.1 0.166-0.102 0.164-0.102 0.164-0.103 0.164-0.104 0.163-0.105 0.162-0.106 0.162-0.107 0.16-0.108 0.16-0.109 0.16-0.11 0.159-0.11 0.158-0.112 0.157-0.112 0.157-0.114 0.156-0.114 0.155-0.115 0.154-0.116 0.154-0.117 0.154-0.118 0.152-0.118 0.151-0.12 0.151-0.121 0.151-0.121 0.149-0.122 0.148-0.123 0.148-0.124 0.148-0.125 0.146-0.126 0.146-0.126 0.145-0.127 0.144-0.128 0.143-0.129 0.143-0.13 0.142-0.131 0.141-0.131 0.14-0.133 0.14-0.132 0.138-0.134 0.138-0.135 0.137-0.136 0.137-0.136 0.135-0.137 0.135-0.138 0.134-0.139 0.133-0.139 0.132-0.141 0.132-0.14 0.13-0.142 0.13-0.143 0.129-0.144 0.129-0.144 0.126-0.144 0.127-0.146 0.126-0.147 0.124-0.147 0.124-0.148 0.124-0.148 0.121-0.15 0.122-0.15 0.121-0.151 0.119-0.152 0.119-0.152 0.117-0.153 0.117-0.154 0.116-0.155 0.116-0.155 0.114-0.155 0.113-0.157 0.113-0.158 0.111-0.158 0.111-0.159 0.11-0.159 0.108-0.16 0.108-0.161 0.107-0.161 0.106-0.162 0.105-0.163 0.104-0.164 0.104-0.164 0.102-0.165 0.101-0.165 0.1-0.167 0.1-0.167 0.098-0.167 0.098-0.168 0.096-0.169 0.096-0.17 0.094-0.169 0.093-0.171 0.093-0.172 0.092-0.171 0.09-0.173 0.09-0.173 0.088-0.173 0.088-0.175 0.087-0.175 0.085-0.176 0.084-0.176 0.084-0.177 0.082-0.177 0.082-0.178 0.08-0.179 0.079-0.178 0.078-0.18 0.078-0.181 0.076-0.18 0.075-0.181 0.074-0.182 0.073-0.183 0.072-0.183 0.07-0.184 0.07-0.184 0.069-0.184 0.067-0.185 0.067-0.186 0.065-0.186 0.064-0.187 0.063-0.187 0.062-0.188 0.061-0.188 0.06-0.188 0.058-0.19 0.058-0.19 0.056-0.19 0.055-0.19 0.054-0.191 0.053-0.192 0.052-0.192 0.05-0.193 0.05-0.193 0.048-0.193 0.047-0.194 0.046-0.194 0.044-0.195 0.044-0.196 0.042-0.195 0.042-0.196 0.039-0.196 0.039-0.197 0.038-0.197 0.036-0.198 0.035-0.198 0.034-0.198 0.032-0.2 0.032-0.198 0.03-0.2 0.029-0.2 0.028-0.2 0.026-0.201 0.025-0.201 0.024-0.201 0.023-0.201 0.021-0.203 0.02-0.202 0.019-0.203 0.018-0.203 0.016-0.203 0.015-0.203 0.014-0.204 0.012-0.204 0.011-0.205 0.01-0.205 0.009-0.205 0.007-0.205 0.006-0.205 0.004-0.206 0.004-0.206 0.002h-0.182l-0.048-14.696h0.135l0.112-0.002 0.111-0.001 0.112-0.003 0.111-0.003 0.11-0.004 0.111-0.005 0.11-0.005 0.11-0.006 0.11-0.007 0.11-0.007 0.109-0.008 0.11-0.009 0.109-0.009 0.108-0.01 0.109-0.011 0.109-0.012 0.108-0.012 0.108-0.013 0.107-0.013 0.109-0.015 0.107-0.014 0.107-0.016 0.107-0.016 0.106-0.017 0.107-0.017 0.107-0.019 0.106-0.019 0.105-0.019 0.106-0.02 0.105-0.021 0.106-0.021 0.105-0.022 0.104-0.023 0.105-0.023 0.104-0.024 0.105-0.025 0.103-0.025 0.104-0.026 0.104-0.027 0.103-0.027 0.102-0.028 0.103-0.028 0.103-0.029 0.102-0.03 0.102-0.03 0.101-0.031 0.102-0.031 0.102-0.033 0.101-0.032 0.1-0.034 0.101-0.034 0.1-0.034 0.1-0.035 0.1-0.036 0.1-0.037 0.099-0.037 0.099-0.037 0.098-0.038 0.099-0.039 0.098-0.039 0.098-0.04 0.098-0.041 0.097-0.041 0.097-0.042 0.097-0.042 0.096-0.043 0.097-0.043 0.096-0.045 0.096-0.044 0.095-0.045 0.095-0.046 0.095-0.047 0.094-0.046 0.095-0.048 0.094-0.048 0.093-0.048 0.094-0.05 0.092-0.049 0.093-0.05 0.093-0.052 0.092-0.051 0.092-0.052 0.091-0.052 0.091-0.053 0.091-0.054 0.091-0.054 0.089-0.054 0.091-0.056 0.089-0.056 0.089-0.056 0.089-0.057 0.088-0.057 0.088-0.058 0.089-0.058 0.087-0.059 0.087-0.06 0.087-0.059 0.086-0.061 0.086-0.061 0.086-0.061 0.085-0.062 0.085-0.063 0.084-0.063 0.084-0.063 0.084-0.064 0.084-0.065 0.083-0.065 0.083-0.065 0.082-0.066 0.081-0.066 0.082-0.068 0.081-0.067 0.081-0.068 0.08-0.068 0.079-0.069 0.08-0.069 0.079-0.07 0.079-0.07 0.078-0.071 0.078-0.071 0.077-0.072 0.077-0.072 0.077-0.073 0.076-0.073 0.075-0.073 0.076-0.074 0.074-0.074 0.075-0.075 0.073-0.075 0.074-0.076 0.073-0.076 0.072-0.076 0.073-0.078 0.071-0.077 0.071-0.077 0.071-0.079 0.07-0.078 0.07-0.079 0.07-0.08 0.068-0.08 0.069-0.08 0.068-0.081 0.067-0.08 0.067-0.082 0.066-0.082 0.066-0.082 0.066-0.083 0.065-0.083 0.064-0.083 0.064-0.084 0.064-0.084 0.063-0.085 0.062-0.085 0.062-0.085 0.062-0.085 0.061-0.087 0.06-0.086 0.06-0.087 0.059-0.087 0.059-0.087 0.059-0.088 0.058-0.088 0.057-0.089 0.057-0.088 0.056-0.089 0.056-0.09 0.055-0.09 0.055-0.09 0.054-0.09 0.053-0.091 0.053-0.092 0.053-0.091 0.052-0.092 0.051-0.092 0.051-0.092 0.05-0.093 0.05-0.093 0.049-0.093 0.049-0.094 0.048-0.094 0.047-0.094 0.047-0.095 0.047-0.095 0.045-0.095 0.045-0.095 0.045-0.096 0.044-0.096 0.044-0.096 0.042-0.096 0.043-0.098 0.041-0.097 0.042-0.097 0.04-0.098 0.04-0.097 0.04-0.099 0.038-0.098 0.038-0.099 0.038-0.099 0.037-0.099 0.037-0.1 0.035-0.099 0.035-0.101 0.035-0.1 0.034-0.1 0.033-0.101 0.033-0.101 0.032-0.101 0.032-0.102 0.031-0.102 0.03-0.102 0.029-0.102 0.029-0.102 0.029-0.103 0.028-0.103 0.027-0.103 0.026-0.104 0.026-0.103 0.025-0.104 0.025-0.104 0.024-0.105 0.024-0.104 0.022-0.104 0.022-0.106 0.022-0.105 0.02-0.105 0.021-0.106 0.019-0.106 0.019-0.106 0.018-0.106 0.018-0.107 0.016-0.106 0.017-0.108 0.015-0.107 0.015-0.107 0.014-0.108 0.014-0.108 0.013-0.107 0.012-0.109 0.011-0.109 0.011-0.108 0.01-0.109 0.01-0.109 0.009-0.109 0.008-0.11 0.007-0.11 0.007-0.109 0.006-0.11 0.005-0.111 0.005-0.11 0.004-0.111 0.003-0.111 0.002-0.111 0.002-0.112 0.001-0.111 0.001-0.136 14.696 0.048z" fill="#41a735"/><rect height="14.696" width="143.2" y="206.5" x="98.591" fill="#41a735"/><path d="m96.463 66.088l-0.275 0.161-0.305 0.177-0.311 0.18-0.325 0.19-0.16 0.095-0.167 0.099-0.171 0.101-0.173 0.105-0.176 0.107-0.18 0.11-0.183 0.114-0.251 0.158-1.37 0.833-0.627 0.381-0.605 0.369-0.583 0.356-0.56 0.343-0.539 0.332-0.517 0.319-0.495 0.308-0.477 0.299-0.226 0.142-0.224 0.142-0.218 0.138-0.213 0.136-0.207 0.133-0.202 0.131-0.196 0.128-0.192 0.125-0.185 0.123-0.181 0.12-0.175 0.117-0.17 0.114-0.164 0.112-0.159 0.11-0.153 0.106-0.149 0.104-0.142 0.102-0.138 0.098-0.132 0.096-0.126 0.094-0.122 0.09-0.116 0.088-0.11 0.084-0.105 0.082-0.1 0.079-0.095 0.077-0.089 0.073-0.084 0.07-0.079 0.067-0.074 0.064-0.069 0.061-0.064 0.057-0.059 0.055-0.054 0.051-0.049 0.047-0.045 0.045-0.04 0.041-0.036 0.038-0.033 0.034-0.028 0.031-0.024 0.027-0.021 0.025-0.017 0.021-0.02 0.025-0.016 0.019-0.029 0.038-0.029 0.039-0.03 0.04-0.03 0.041-0.03 0.042-0.031 0.043-0.03 0.044-0.031 0.046-0.032 0.047-0.031 0.048-0.032 0.05-0.032 0.051-0.032 0.053-0.033 0.055-0.033 0.056-0.033 0.058-0.033 0.059-0.034 0.062-0.033 0.063-0.034 0.066-0.034 0.067-0.034 0.069-0.034 0.072-0.035 0.074-0.034 0.075-0.034 0.079-0.034 0.08-0.035 0.083-0.034 0.086-0.034 0.088-0.034 0.09-0.033 0.093-0.034 0.096-0.033 0.099-0.033 0.102-0.032 0.104-0.032 0.108-0.035 0.12-0.013 0.047-0.015 0.057-0.015 0.058-0.016 0.059-0.015 0.059-0.015 0.061-0.014 0.061-0.015 0.062-0.014 0.063-0.015 0.064-0.014 0.064-0.013 0.066-0.014 0.066-0.014 0.068-0.013 0.068-0.013 0.069-0.012 0.069-0.013 0.071-0.012 0.072-0.012 0.073-0.012 0.073-0.011 0.075-0.011 0.075-0.011 0.077-0.011 0.077-0.01 0.078-0.01 0.08-0.01 0.08-0.009 0.081-0.009 0.082-0.009 0.084-0.008 0.084-0.008 0.085-0.007 0.086-0.007 0.088-0.007 0.088-0.006 0.09-0.006 0.09-0.006 0.092-0.005 0.092-0.005 0.094-0.004 0.094-0.003 0.096-0.004 0.097-0.003 0.098-0.002 0.099-0.002 0.101-0.001 0.101-0.001 0.102v0.122l-14.696-0.037v-0.16l0.001-0.178 0.003-0.177 0.003-0.176 0.004-0.176 0.005-0.175 0.006-0.174 0.006-0.172 0.008-0.173 0.008-0.171 0.01-0.17 0.01-0.169 0.011-0.169 0.012-0.168 0.013-0.167 0.013-0.166 0.015-0.165 0.015-0.165 0.016-0.163 0.017-0.163 0.017-0.162 0.019-0.161 0.019-0.16 0.02-0.159 0.021-0.158 0.021-0.158 0.022-0.157 0.023-0.155 0.024-0.155 0.025-0.154 0.025-0.154 0.026-0.152 0.027-0.151 0.027-0.151 0.028-0.15 0.029-0.149 0.03-0.148 0.03-0.147 0.031-0.146 0.031-0.145 0.033-0.145 0.033-0.143 0.033-0.143 0.034-0.142 0.035-0.141 0.036-0.14 0.036-0.139 0.036-0.138 0.037-0.138 0.041-0.146 0.074-0.26 0.08-0.267 0.082-0.263 0.084-0.259 0.085-0.256 0.088-0.252 0.09-0.248 0.091-0.245 0.093-0.241 0.095-0.237 0.096-0.233 0.098-0.23 0.099-0.226 0.1-0.222 0.101-0.219 0.103-0.214 0.103-0.211 0.105-0.207 0.105-0.203 0.106-0.199 0.106-0.196 0.107-0.191 0.107-0.188 0.108-0.184 0.108-0.18 0.107-0.176 0.108-0.172 0.108-0.169 0.107-0.164 0.107-0.16 0.106-0.157 0.106-0.153 0.105-0.149 0.104-0.144 0.103-0.141 0.102-0.137 0.101-0.133 0.099-0.129 0.112-0.142 0.153-0.191 0.162-0.195 0.163-0.191 0.166-0.188 0.168-0.184 0.169-0.182 0.171-0.178 0.173-0.176 0.175-0.172 0.176-0.17 0.177-0.168 0.179-0.165 0.18-0.163 0.182-0.16 0.183-0.159 0.185-0.157 0.186-0.155 0.188-0.154 0.189-0.152 0.191-0.151 0.192-0.15 0.195-0.149 0.196-0.149 0.198-0.147 0.2-0.147 0.202-0.147 0.204-0.147 0.206-0.146 0.209-0.147 0.211-0.146 0.213-0.147 0.216-0.147 0.219-0.148 0.221-0.148 0.224-0.149 0.227-0.15 0.23-0.15 0.233-0.152 0.236-0.152 0.239-0.154 0.243-0.155 0.246-0.156 0.249-0.158 0.256-0.161 0.513-0.322 0.532-0.331 0.548-0.338 0.563-0.347 0.581-0.355 0.598-0.365 0.615-0.376 0.634-0.385 1.277-0.776 0.188-0.118 0.247-0.154 0.24-0.147 0.232-0.142 0.225-0.135 0.217-0.13 0.208-0.123 0.202-0.119 0.365-0.213 0.326-0.189 0.278-0.161 0.249-0.147 7.429 12.681z" fill="#41a735"/><rect height="107.68" width="14.696" y="81.43" x="259.18" fill="#41a735"/><path d="m251.6 53.554l0.277 0.161 0.327 0.189 0.364 0.213 0.203 0.119 0.208 0.123 0.217 0.13 0.224 0.135 0.233 0.142 0.24 0.147 0.247 0.154 0.188 0.118 1.276 0.776 0.634 0.385 0.616 0.376 0.598 0.365 0.58 0.355 0.564 0.347 0.547 0.338 0.532 0.331 0.514 0.322 0.255 0.161 0.25 0.158 0.246 0.156 0.242 0.155 0.24 0.154 0.236 0.152 0.233 0.152 0.229 0.15 0.228 0.15 0.224 0.149 0.221 0.148 0.218 0.148 0.216 0.147 0.214 0.147 0.211 0.146 0.208 0.147 0.207 0.146 0.204 0.147 0.202 0.147 0.2 0.147 0.198 0.147 0.196 0.149 0.194 0.149 0.193 0.15 0.191 0.151 0.189 0.152 0.188 0.154 0.186 0.155 0.184 0.157 0.184 0.159 0.181 0.16 0.181 0.163 0.179 0.165 0.177 0.168 0.176 0.169 0.174 0.173 0.173 0.176 0.171 0.178 0.17 0.182 0.167 0.184 0.166 0.188 0.164 0.191 0.161 0.195 0.154 0.191 0.111 0.143 0.1 0.128 0.1 0.133 0.102 0.137 0.103 0.14 0.104 0.145 0.105 0.149 0.106 0.153 0.107 0.157 0.106 0.16 0.108 0.165 0.107 0.168 0.108 0.172 0.108 0.176 0.108 0.18 0.107 0.184 0.107 0.188 0.107 0.191 0.107 0.196 0.106 0.199 0.105 0.203 0.104 0.207 0.104 0.211 0.102 0.214 0.101 0.219 0.101 0.222 0.099 0.226 0.097 0.23 0.097 0.233 0.094 0.237 0.093 0.241 0.092 0.245 0.089 0.248 0.088 0.252 0.086 0.256 0.084 0.259 0.082 0.263 0.079 0.267 0.075 0.26 0.04 0.146 0.037 0.137 0.037 0.139 0.036 0.139 0.035 0.14 0.035 0.141 0.035 0.142 0.033 0.142 0.033 0.144 0.032 0.145 0.032 0.145 0.03 0.146 0.031 0.148 0.029 0.147 0.029 0.149 0.028 0.15 0.028 0.151 0.026 0.151 0.026 0.152 0.026 0.154 0.024 0.153 0.024 0.155 0.023 0.156 0.022 0.158 0.022 0.157 0.021 0.158 0.02 0.159 0.019 0.16 0.018 0.161 0.018 0.162 0.017 0.163 0.016 0.163 0.015 0.165 0.014 0.165 0.014 0.166 0.013 0.167 0.011 0.168 0.012 0.169 0.01 0.169 0.009 0.17 0.009 0.172 0.007 0.172 0.007 0.172 0.006 0.174 0.005 0.175 0.004 0.175 0.003 0.177 0.002 0.177 0.002 0.178v0.16l-14.696 0.037-0.001-0.122-0.001-0.102-0.001-0.102-0.002-0.1-0.002-0.098-0.003-0.099-0.003-0.097-0.004-0.095-0.004-0.095-0.005-0.094-0.005-0.092-0.005-0.092-0.006-0.09-0.006-0.09-0.007-0.088-0.007-0.088-0.008-0.086-0.008-0.085-0.008-0.084-0.008-0.083-0.009-0.083-0.01-0.081-0.009-0.08-0.01-0.08-0.011-0.078-0.01-0.078-0.011-0.076-0.011-0.075-0.012-0.075-0.011-0.073-0.012-0.073-0.013-0.072-0.012-0.071-0.013-0.069-0.013-0.069-0.013-0.069-0.013-0.067-0.014-0.066-0.014-0.065-0.014-0.065-0.014-0.064-0.014-0.063-0.015-0.062-0.015-0.061-0.015-0.061-0.015-0.059-0.015-0.059-0.015-0.058-0.016-0.057-0.013-0.047-0.034-0.12-0.032-0.108-0.033-0.104-0.033-0.102-0.033-0.099-0.033-0.096-0.034-0.093-0.034-0.09-0.034-0.088-0.034-0.086-0.034-0.083-0.034-0.08-0.035-0.079-0.034-0.075-0.034-0.074-0.034-0.072-0.034-0.069-0.034-0.067-0.034-0.066-0.034-0.063-0.033-0.062-0.034-0.059-0.033-0.058-0.033-0.056-0.032-0.055-0.032-0.053-0.033-0.051-0.031-0.05-0.032-0.048-0.031-0.047-0.031-0.046-0.031-0.044-0.03-0.043-0.03-0.042-0.031-0.041-0.029-0.04-0.03-0.039-0.029-0.038-0.015-0.02-0.02-0.024-0.018-0.021-0.02-0.024-0.025-0.028-0.028-0.031-0.032-0.034-0.036-0.038-0.041-0.041-0.044-0.044-0.05-0.048-0.054-0.052-0.059-0.054-0.063-0.057-0.069-0.061-0.074-0.064-0.079-0.067-0.084-0.07-0.09-0.073-0.094-0.077-0.1-0.079-0.105-0.081-0.111-0.085-0.116-0.088-0.121-0.09-0.127-0.094-0.132-0.096-0.137-0.098-0.143-0.102-0.148-0.104-0.154-0.106-0.159-0.11-0.164-0.112-0.169-0.114-0.176-0.118-0.18-0.119-0.186-0.123-0.191-0.125-0.197-0.128-0.201-0.131-0.208-0.133-0.213-0.136-0.218-0.138-0.223-0.142-0.226-0.142-0.477-0.299-0.495-0.308-0.517-0.319-0.539-0.332-0.561-0.343-0.583-0.356-0.604-0.369-0.627-0.381-1.37-0.833-0.252-0.158-0.183-0.113-0.179-0.111-0.177-0.107-0.173-0.105-0.17-0.101-0.167-0.099-0.161-0.095-0.325-0.19-0.31-0.18-0.305-0.177-0.276-0.161 7.429-12.681 0.25 0.147z" fill="#41a735"/><path d="m171.24 8.782l0.252 0.003 0.251 0.004 0.249 0.006 0.249 0.008 0.248 0.01 0.246 0.012 0.246 0.013 0.244 0.015 0.243 0.017 0.243 0.018 0.241 0.02 0.24 0.022 0.239 0.023 0.238 0.025 0.236 0.026 0.236 0.028 0.234 0.029 0.234 0.031 0.232 0.033 0.23 0.033 0.23 0.036 0.229 0.036 0.227 0.038 0.226 0.039 0.225 0.041 0.224 0.041 0.222 0.043 0.221 0.045 0.22 0.045 0.219 0.047 0.217 0.048 0.216 0.048 0.215 0.05 0.214 0.052 0.212 0.052 0.212 0.053 0.209 0.054 0.209 0.055 0.207 0.056 0.206 0.057 0.205 0.058 0.203 0.059 0.202 0.06 0.201 0.06 0.2 0.062 0.198 0.062 0.197 0.063 0.195 0.063 0.194 0.065 0.193 0.065 0.192 0.065 0.19 0.067 0.188 0.067 0.188 0.067 0.186 0.068 0.185 0.069 0.184 0.069 0.182 0.07 0.18 0.07 0.18 0.071 0.178 0.071 0.176 0.072 0.176 0.071 0.174 0.073 0.172 0.072 0.172 0.073 0.17 0.073 0.168 0.074 0.167 0.074 0.166 0.074 0.164 0.074 0.163 0.074 0.162 0.075 0.16 0.074 0.159 0.075 0.157 0.075 0.162 0.078 0.302 0.147 0.302 0.15 0.296 0.15 0.291 0.15 0.285 0.149 0.279 0.148 0.274 0.148 0.268 0.146 0.261 0.145 0.256 0.144 0.25 0.142 0.244 0.14 0.238 0.138 0.231 0.136 0.225 0.134 0.219 0.13 0.212 0.128 0.206 0.125 0.202 0.124 0.373 0.229 0.35 0.217 1.403 0.874 1.435 0.894 1.472 0.918 1.507 0.942 1.542 0.965 1.578 0.988 1.612 1.012 1.646 1.035 1.68 1.057 1.714 1.081 1.747 1.103 1.78 1.126 1.812 1.148 1.844 1.171 1.876 1.193 1.908 1.215 1.939 1.238 1.969 1.26 1.999 1.281 2.029 1.303 1.027 0.66 1.033 0.665 1.041 0.671 1.048 0.676 1.055 0.682 1.062 0.686 1.069 0.692 1.077 0.698 1.083 0.703 1.091 0.708 1.097 0.713 1.105 0.719 1.111 0.724 1.118 0.729 1.125 0.735 1.132 0.739 1.138 0.745 1.145 0.751 1.152 0.755 1.158 0.761 1.164 0.765 1.172 0.771 1.177 0.776 1.182 0.78-8.094 12.267-1.179-0.778-1.17-0.771-1.165-0.767-1.158-0.761-1.151-0.757-1.145-0.751-1.139-0.746-1.132-0.74-1.125-0.736-1.119-0.73-1.111-0.725-1.105-0.72-1.098-0.715-1.092-0.709-1.084-0.704-1.077-0.699-1.071-0.694-1.063-0.688-1.056-0.683-1.05-0.677-1.042-0.673-1.034-0.666-1.028-0.662-1.019-0.656-2.019-1.296-1.988-1.274-1.959-1.253-1.928-1.231-1.896-1.208-1.866-1.187-1.834-1.164-1.803-1.142-1.77-1.12-1.737-1.097-1.705-1.075-1.671-1.052-1.638-1.029-1.604-1.006-1.569-0.984-1.535-0.96-1.499-0.937-1.465-0.914-1.428-0.89-1.388-0.864-0.318-0.197-0.331-0.204-0.163-0.1-0.169-0.102-0.171-0.103-0.172-0.103-0.175-0.104-0.178-0.104-0.18-0.105-0.182-0.105-0.185-0.105-0.187-0.105-0.19-0.105-0.192-0.105-0.194-0.105-0.197-0.105-0.2-0.104-0.202-0.104-0.204-0.103-0.207-0.103-0.215-0.105-0.099-0.047-0.106-0.051-0.106-0.05-0.108-0.05-0.107-0.049-0.108-0.05-0.109-0.049-0.11-0.049-0.109-0.048-0.111-0.048-0.111-0.048-0.111-0.048-0.112-0.047-0.113-0.047-0.113-0.046-0.114-0.046-0.114-0.046-0.115-0.045-0.115-0.045-0.116-0.044-0.116-0.044-0.117-0.043-0.117-0.043-0.118-0.042-0.118-0.042-0.119-0.042-0.119-0.041-0.12-0.04-0.12-0.04-0.12-0.039-0.121-0.039-0.122-0.038-0.122-0.038-0.123-0.036-0.123-0.037-0.123-0.036-0.124-0.035-0.124-0.034-0.125-0.034-0.125-0.033-0.126-0.032-0.126-0.032-0.127-0.031-0.127-0.031-0.127-0.029-0.128-0.029-0.128-0.028-0.129-0.028-0.129-0.027-0.13-0.025-0.13-0.026-0.131-0.024-0.131-0.024-0.131-0.022-0.132-0.022-0.132-0.021-0.133-0.021-0.133-0.019-0.133-0.019-0.135-0.018-0.134-0.016-0.135-0.016-0.135-0.016-0.136-0.014-0.136-0.013-0.137-0.012-0.137-0.012-0.138-0.01-0.138-0.01-0.138-0.008-0.14-0.008-0.139-0.006-0.14-0.006-0.141-0.004-0.141-0.004-0.141-0.002-0.142-0.002h-0.143l-0.143 0.001-0.143 0.001-0.144 0.003-0.148 0.004-0.137 0.005-0.135 0.006-0.134 0.006-0.134 0.008-0.133 0.008-0.132 0.009-0.132 0.01-0.132 0.011-0.131 0.012-0.13 0.013-0.13 0.014-0.129 0.014-0.129 0.015-0.128 0.016-0.128 0.017-0.127 0.018-0.127 0.018-0.126 0.019-0.126 0.02-0.125 0.021-0.125 0.021-0.124 0.023-0.124 0.023-0.123 0.023-0.122 0.024-0.122 0.026-0.122 0.025-0.121 0.027-0.121 0.027-0.12 0.027-0.12 0.029-0.119 0.029-0.118 0.029-0.118 0.03-0.118 0.031-0.117 0.032-0.116 0.032-0.116 0.032-0.116 0.033-0.115 0.034-0.114 0.034-0.114 0.035-0.114 0.035-0.113 0.036-0.112 0.036-0.112 0.037-0.111 0.037-0.111 0.038-0.11 0.038-0.11 0.039-0.109 0.039-0.108 0.039-0.108 0.04-0.108 0.041-0.107 0.04-0.106 0.041-0.106 0.042-0.105 0.042-0.105 0.042-0.104 0.042-0.103 0.043-0.103 0.043-0.103 0.044-0.101 0.044-0.101 0.044-0.101 0.044-0.1 0.045-0.099 0.044-0.099 0.045-0.098 0.046-0.098 0.045-0.09 0.043-0.199 0.095-0.189 0.093-0.187 0.093-0.185 0.094-0.181 0.094-0.18 0.094-0.177 0.095-0.174 0.094-0.171 0.095-0.169 0.095-0.166 0.095-0.164 0.094-0.161 0.094-0.159 0.094-0.155 0.093-0.154 0.093-0.151 0.092-0.148 0.092-0.146 0.091-0.144 0.09-0.141 0.089-0.136 0.087-0.278 0.178-0.266 0.172-0.26 0.169-0.595 0.386-0.612 0.395-0.625 0.403-0.638 0.41-0.651 0.417-0.664 0.424-0.678 0.432-0.69 0.439-0.704 0.446-0.716 0.454-0.729 0.46-0.742 0.468-0.755 0.476-0.768 0.482-0.781 0.49-0.793 0.497-0.806 0.504-0.819 0.512-1.673 1.043-1.724 1.073-1.774 1.101-1.822 1.129-1.87 1.158-1.919 1.185-1.966 1.214-2.013 1.241-2.059 1.269-2.106 1.296-2.151 1.324-4.437 2.729-4.613 2.837-4.787 2.943-4.956 3.048-2.54 1.563-2.581 1.588-2.621 1.615-2.661 1.64-7.711-12.511 2.663-1.641 2.624-1.617 2.584-1.59 2.542-1.565 4.959-3.049 4.787-2.944 4.613-2.836 4.434-2.727 2.148-1.322 2.102-1.294 2.056-1.266 2.007-1.239 1.96-1.209 1.912-1.182 1.862-1.152 1.813-1.124 1.763-1.094 1.712-1.066 1.662-1.036 0.81-0.506 0.798-0.499 0.785-0.492 0.772-0.484 0.758-0.477 0.746-0.469 0.732-0.462 0.718-0.454 0.705-0.446 0.691-0.438 0.678-0.431 0.663-0.423 0.65-0.415 0.636-0.408 0.622-0.399 0.608-0.392 0.593-0.383 0.583-0.378 0.267-0.173 0.297-0.193 0.323-0.207 0.177-0.113 0.181-0.114 0.188-0.118 0.194-0.121 0.2-0.123 0.207-0.127 0.213-0.128 0.218-0.131 0.225-0.133 0.231-0.135 0.237-0.136 0.242-0.138 0.248-0.14 0.255-0.14 0.259-0.141 0.266-0.142 0.271-0.143 0.276-0.143 0.283-0.144 0.288-0.143 0.293-0.144 0.292-0.14 0.158-0.074 0.153-0.071 0.154-0.072 0.156-0.071 0.157-0.07 0.158-0.071 0.16-0.07 0.161-0.071 0.162-0.069 0.164-0.07 0.165-0.069 0.166-0.069 0.168-0.069 0.169-0.068 0.171-0.068 0.172-0.067 0.173-0.067 0.174-0.066 0.176-0.066 0.177-0.066 0.179-0.065 0.179-0.064 0.181-0.064 0.183-0.063 0.184-0.063 0.185-0.062 0.186-0.061 0.188-0.06 0.189-0.06 0.19-0.06 0.191-0.058 0.193-0.058 0.194-0.057 0.196-0.056 0.196-0.055 0.198-0.054 0.2-0.054 0.2-0.052 0.202-0.052 0.203-0.05 0.204-0.05 0.206-0.049 0.207-0.047 0.208-0.047 0.209-0.046 0.21-0.044 0.212-0.043 0.213-0.043 0.214-0.041 0.216-0.04 0.216-0.038 0.218-0.038 0.219-0.036 0.22-0.035 0.221-0.034 0.223-0.032 0.224-0.031 0.224-0.029 0.226-0.029 0.227-0.027 0.229-0.025 0.229-0.024 0.231-0.023 0.231-0.021 0.233-0.019 0.233-0.018 0.235-0.016 0.236-0.015 0.237-0.013 0.238-0.012 0.239-0.01 0.239-0.008 0.253-0.007 0.255-0.005 0.255-0.003 0.254-0.002 0.252 0.001z" fill="#41a735"/><path fill-opacity=".48" fill="#1d1d1b" d="m193.53 221.19h-9.315c-2.392 0-4.357 0.037-7.185 0h-2.25-1.56c-1.5 0-4.71-1.23-7.852-3.75-2.27-1.684-4.138-3.851-5.468-6.345-0.753-1.456-1.304-3.008-1.635-4.613h35.303v14.693l-0.038 0.015z" fill-rule="nonzero"/><path fill-opacity=".48" fill="#1d1d1b" d="m268.84 206.5h-26.655c0.713-0.015 1.424-0.07 2.13-0.165 0.834-0.106 1.659-0.274 2.468-0.502 1.352-0.386 2.649-0.949 3.855-1.673 0.733-0.445 1.43-0.947 2.085-1.5 0.93-0.768 1.788-1.619 2.565-2.542 0.643-0.755 1.218-1.566 1.717-2.423l0.038-0.067h15.75c-0.083 0.36-0.165 0.66-0.233 0.885-0.067 0.225-0.532 1.627-0.547 1.657-0.128 0.345-0.255 0.668-0.435 1.095-0.18 0.428-0.42 0.99-0.705 1.59-0.645 1.365-1.23 2.355-1.395 2.625-0.255 0.435-0.48 0.78-0.638 1.02z" fill-rule="nonzero"/><path d="m177.54 189.23l0.001 0.111 0.002 0.112 0.003 0.111 0.003 0.111 0.004 0.111 0.004 0.11 0.006 0.111 0.006 0.11 0.007 0.11 0.007 0.109 0.008 0.109 0.009 0.11 0.009 0.109 0.01 0.109 0.011 0.109 0.012 0.108 0.012 0.108 0.013 0.108 0.013 0.108 0.015 0.108 0.014 0.107 0.016 0.107 0.016 0.107 0.017 0.107 0.017 0.107 0.019 0.106 0.018 0.106 0.02 0.106 0.02 0.106 0.021 0.105 0.021 0.105 0.022 0.105 0.023 0.105 0.023 0.105 0.024 0.104 0.025 0.104 0.025 0.104 0.026 0.104 0.027 0.103 0.027 0.103 0.028 0.103 0.028 0.103 0.029 0.102 0.03 0.102 0.03 0.103 0.031 0.101 0.031 0.102 0.033 0.101 0.032 0.101 0.034 0.101 0.034 0.1 0.034 0.1 0.035 0.101 0.036 0.099 0.037 0.1 0.036 0.099 0.038 0.099 0.038 0.099 0.039 0.098 0.039 0.099 0.04 0.097 0.041 0.098 0.041 0.097 0.042 0.097 0.042 0.098 0.043 0.096 0.043 0.096 0.044 0.096 0.045 0.096 0.045 0.095 0.046 0.095 0.046 0.095 0.047 0.095 0.048 0.094 0.048 0.094 0.048 0.094 0.049 0.093 0.05 0.093 0.051 0.093 0.05 0.092 0.052 0.092 0.052 0.092 0.052 0.091 0.053 0.092 0.054 0.09 0.054 0.091 0.055 0.09 0.055 0.09 0.055 0.089 0.057 0.09 0.056 0.088 0.058 0.089 0.058 0.088 0.058 0.088 0.059 0.087 0.059 0.087 0.06 0.087 0.061 0.086 0.061 0.087 0.061 0.085 0.062 0.085 0.063 0.085 0.063 0.085 0.063 0.084 0.064 0.084 0.065 0.083 0.065 0.083 0.065 0.083 0.066 0.082 0.066 0.082 0.067 0.081 0.068 0.081 0.068 0.081 0.068 0.08 0.069 0.08 0.069 0.08 0.07 0.078 0.07 0.079 0.071 0.079 0.071 0.077 0.072 0.077 0.072 0.078 0.072 0.076 0.073 0.076 0.074 0.076 0.074 0.075 0.074 0.075 0.075 0.074 0.075 0.074 0.076 0.073 0.076 0.073 0.076 0.073 0.077 0.072 0.078 0.072 0.078 0.071 0.078 0.071 0.078 0.07 0.079 0.07 0.08 0.069 0.08 0.069 0.08 0.068 0.081 0.068 0.081 0.067 0.081 0.067 0.082 0.067 0.082 0.066 0.083 0.065 0.083 0.065 0.083 0.065 0.084 0.064 0.084 0.063 0.085 0.063 0.085 0.063 0.085 0.062 0.086 0.061 0.085 0.061 0.087 0.06 0.087 0.061 0.087 0.059 0.087 0.059 0.088 0.058 0.088 0.058 0.088 0.057 0.089 0.057 0.089 0.056 0.09 0.056 0.09 0.055 0.09 0.055 0.09 0.054 0.091 0.054 0.091 0.053 0.092 0.052 0.092 0.052 0.091 0.051 0.093 0.051 0.093 0.051 0.092 0.049 0.094 0.049 0.094 0.049 0.094 0.048 0.094 0.048 0.094 0.046 0.095 0.047 0.095 0.046 0.096 0.045 0.096 0.044 0.096 0.045 0.096 0.043 0.096 0.043 0.097 0.042 0.098 0.042 0.097 0.041 0.097 0.04 0.099 0.041 0.098 0.039 0.098 0.039 0.099 0.038 0.099 0.037 0.099 0.037 0.1 0.037 0.1 0.036 0.099 0.035 0.101 0.034 0.1 0.034 0.101 0.034 0.101 0.032 0.101 0.033 0.102 0.031 0.102 0.031 0.101 0.03 0.103 0.03 0.102 0.029 0.103 0.028 0.103 0.028 0.103 0.027 0.104 0.027 0.103 0.026 0.104 0.025 0.104 0.025 0.105 0.024 0.104 0.023 0.104 0.023 0.105 0.022 0.106 0.021 0.105 0.021 0.106 0.02 0.106 0.019 0.106 0.019 0.107 0.019 0.106 0.017 0.106 0.017 0.108 0.016 0.107 0.016 0.107 0.014 0.108 0.015 0.107 0.013 0.108 0.013 0.109 0.012 0.109 0.012 0.108 0.011 0.109 0.01 0.109 0.009 0.109 0.009 0.11 0.008 0.109 0.007 0.11 0.007 0.11 0.006 0.11 0.005 0.111 0.005 0.111 0.004 0.111 0.003 0.111 0.003 0.111 0.001 0.112 0.002h0.136l-0.048 14.696h-0.183l-0.206-0.002-0.205-0.004-0.205-0.004-0.206-0.006-0.205-0.007-0.204-0.009-0.205-0.01-0.204-0.011-0.204-0.012-0.203-0.014-0.204-0.015-0.203-0.016-0.202-0.018-0.203-0.019-0.202-0.02-0.201-0.021-0.201-0.023-0.201-0.024-0.202-0.025-0.199-0.026-0.2-0.028-0.2-0.029-0.199-0.03-0.199-0.032-0.199-0.032-0.197-0.034-0.198-0.035-0.197-0.036-0.197-0.038-0.197-0.039-0.195-0.039-0.196-0.042-0.196-0.042-0.194-0.043-0.195-0.045-0.193-0.046-0.194-0.047-0.193-0.048-0.192-0.05-0.192-0.05-0.192-0.052-0.191-0.053-0.191-0.054-0.19-0.055-0.19-0.056-0.189-0.058-0.189-0.058-0.187-0.06-0.188-0.061-0.188-0.062-0.186-0.063-0.187-0.064-0.185-0.065-0.186-0.067-0.184-0.067-0.184-0.069-0.184-0.07-0.183-0.07-0.182-0.072-0.182-0.073-0.181-0.074-0.181-0.075-0.18-0.076-0.18-0.078-0.179-0.078-0.179-0.079-0.178-0.08-0.177-0.082-0.176-0.082-0.177-0.084-0.175-0.084-0.175-0.085-0.175-0.087-0.174-0.088-0.173-0.088-0.172-0.09-0.172-0.09-0.172-0.092-0.17-0.092-0.17-0.094-0.17-0.094-0.169-0.096-0.167-0.096-0.168-0.098-0.167-0.098-0.166-0.099-0.165-0.101-0.165-0.101-0.164-0.102-0.164-0.104-0.163-0.104-0.162-0.105-0.162-0.106-0.16-0.107-0.161-0.108-0.159-0.109-0.159-0.109-0.158-0.111-0.157-0.112-0.157-0.112-0.156-0.113-0.155-0.115-0.154-0.114-0.154-0.117-0.154-0.117-0.152-0.117-0.152-0.119-0.15-0.12-0.15-0.12-0.15-0.121-0.149-0.123-0.148-0.123-0.147-0.124-0.146-0.124-0.146-0.126-0.145-0.127-0.144-0.127-0.143-0.128-0.143-0.129-0.142-0.13-0.141-0.13-0.14-0.132-0.14-0.132-0.138-0.133-0.138-0.134-0.138-0.135-0.136-0.135-0.135-0.137-0.135-0.137-0.134-0.137-0.133-0.139-0.132-0.14-0.132-0.14-0.13-0.141-0.13-0.142-0.129-0.143-0.128-0.143-0.128-0.144-0.126-0.145-0.126-0.146-0.124-0.146-0.124-0.148-0.123-0.147-0.122-0.149-0.122-0.15-0.12-0.15-0.12-0.151-0.119-0.151-0.117-0.152-0.117-0.154-0.116-0.154-0.116-0.154-0.114-0.155-0.113-0.156-0.113-0.157-0.111-0.157-0.111-0.158-0.11-0.159-0.108-0.159-0.108-0.16-0.107-0.162-0.106-0.161-0.105-0.162-0.105-0.164-0.103-0.163-0.102-0.164-0.101-0.165-0.1-0.165-0.1-0.166-0.098-0.167-0.098-0.168-0.096-0.168-0.096-0.169-0.094-0.169-0.094-0.17-0.092-0.171-0.092-0.171-0.09-0.172-0.09-0.172-0.088-0.173-0.088-0.174-0.087-0.175-0.085-0.175-0.084-0.175-0.084-0.177-0.082-0.176-0.082-0.177-0.08-0.179-0.079-0.178-0.079-0.179-0.077-0.18-0.076-0.18-0.075-0.18-0.074-0.182-0.073-0.182-0.072-0.182-0.07-0.183-0.07-0.184-0.069-0.184-0.067-0.185-0.067-0.185-0.065-0.185-0.064-0.187-0.063-0.186-0.062-0.187-0.061-0.188-0.06-0.188-0.058-0.189-0.058-0.19-0.056-0.189-0.055-0.19-0.054-0.191-0.053-0.191-0.052-0.191-0.05-0.193-0.05-0.193-0.048-0.192-0.047-0.194-0.046-0.194-0.045-0.194-0.043-0.195-0.042-0.195-0.041-0.195-0.04-0.196-0.039-0.197-0.038-0.197-0.036-0.197-0.035-0.197-0.034-0.199-0.032-0.198-0.032-0.199-0.03-0.199-0.029-0.2-0.028-0.2-0.026-0.2-0.025-0.2-0.024-0.201-0.023-0.202-0.021-0.201-0.02-0.203-0.019-0.202-0.018-0.202-0.016-0.203-0.015-0.204-0.014-0.203-0.012-0.204-0.011-0.204-0.01-0.204-0.009-0.205-0.007-0.205-0.006-0.205-0.005-0.206-0.003-0.206-0.002-0.206v-0.183l14.696-0.046v0.135z" fill="#3680bd"/><rect height="14.696" width="143.21" y="206.5" x="194.93" fill="#3680bd"/><path d="m0.559 310.94v-62.799h21.518c7.099 0 12.502 1.423 16.211 4.269s5.564 7.086 5.564 12.719c0.033 2.764-0.779 5.473-2.328 7.762-1.552 2.299-3.823 4.081-6.812 5.344 3.393 0.922 6.016 2.655 7.871 5.198 1.854 2.544 2.781 5.599 2.781 9.165 0 5.883-1.889 10.411-5.668 13.585s-9.191 4.755-16.237 4.744h-22.9v0.013zm10.925-36.352h10.694c3.392 0 6.044-0.769 7.954-2.307 1.911-1.538 2.858-3.716 2.841-6.534 0-3.104-0.884-5.345-2.652-6.723-1.767-1.378-4.515-2.065-8.244-2.059h-10.606v17.648l0.013-0.025zm0 8.022v19.535h12.118c3.421 0 6.095-0.841 8.022-2.521 1.927-1.681 2.891-4.029 2.891-7.043 0-6.496-3.335-9.816-10.005-9.959h-13.026v-0.012z" fill-rule="nonzero"/><path d="m53.298 287.17c-0.067-4.272 0.862-8.502 2.714-12.354 1.664-3.502 4.319-6.44 7.635-8.45 3.278-1.961 7.044-2.941 11.299-2.941 6.295 0 11.405 2.027 15.329 6.08 3.925 4.054 6.046 9.429 6.362 16.127l0.042 2.459c0 4.599-0.884 8.71-2.651 12.332-1.648 3.487-4.288 6.411-7.589 8.404-3.292 1.984-7.093 2.975-11.404 2.975-6.583 0-11.851-2.192-15.804-6.576s-5.929-10.226-5.929-17.526v-0.53h-0.004zm10.48 0.908c0 4.801 0.991 8.559 2.975 11.274 1.983 2.714 4.742 4.073 8.277 4.076 3.536 0 6.288-1.38 8.257-4.139 1.97-2.759 2.95-6.799 2.942-12.119 0-4.714-1.013-8.451-3.038-11.211-1.933-2.593-4.984-4.124-8.218-4.124-3.207 0-6.234 1.505-8.17 4.061-2.02 2.715-3.03 6.775-3.03 12.182h0.005z" fill-rule="nonzero"/><rect fill-rule="nonzero" height="66.236" width="10.48" y="244.7" x="106.2"/><path d="m128.11 252.12c-0.049-1.497 0.502-2.953 1.53-4.042 1.022-1.079 2.482-1.618 4.378-1.618 1.897 0 3.363 0.536 4.4 1.609 1.038 1.084 1.598 2.542 1.55 4.043 0.043 1.479-0.517 2.915-1.55 3.975-1.034 1.056-2.501 1.584-4.4 1.584s-3.359-0.528-4.378-1.584c-1.021-1.063-1.573-2.494-1.53-3.967zm11.127 58.828h-10.459v-46.642h10.48v46.642h-0.021z" fill-rule="nonzero"/><path d="m148.81 287.26c0-7.245 1.703-13.029 5.11-17.355 3.406-4.325 7.926-6.488 13.559-6.488 5.323 0 9.505 1.855 12.548 5.564l0.474-4.702h9.442v45.23c0 6.124-1.905 10.953-5.714 14.489-3.81 3.535-8.949 5.302-15.417 5.302-3.454-0.006-6.869-0.733-10.026-2.134-3.264-1.423-5.743-3.285-7.438-5.585l4.958-6.303c3.219 3.824 7.186 5.736 11.9 5.736 3.477 0 6.222-0.941 8.236-2.824 2.014-1.882 3.023-4.644 3.026-8.286v-3.147c-3.017 3.361-7.041 5.042-12.073 5.042-5.462 0-9.925-2.171-13.387-6.513-3.463-4.342-5.195-10.351-5.198-18.026zm10.434 0.907c0 4.687 0.955 8.373 2.865 11.06 1.911 2.686 4.562 4.03 7.955 4.03 4.224 0 7.357-1.812 9.4-5.434v-20.526c-1.984-3.536-5.089-5.303-9.316-5.303-3.449 0-6.13 1.365-8.043 4.097-1.913 2.731-2.867 6.755-2.861 12.072v0.004z" fill-rule="nonzero"/><path d="m228.58 310.94c-0.46-0.891-0.862-2.344-1.206-4.358-3.153 3.401-7.612 5.301-12.249 5.219-4.687 0-8.51-1.336-11.471-4.009-2.875-2.483-4.503-6.118-4.442-9.916 0-4.973 1.848-8.79 5.543-11.451s8.976-3.99 15.845-3.988h6.425v-3.063c0-2.415-0.675-4.347-2.025-5.799-1.35-1.451-3.405-2.176-6.165-2.176-2.386 0-4.347 0.596-5.882 1.79-1.455 1.055-2.308 2.754-2.286 4.551h-10.459c0.01-2.61 0.898-5.142 2.521-7.186 1.813-2.317 4.199-4.123 6.921-5.24 3.089-1.298 6.414-1.943 9.765-1.895 5.463 0 9.818 1.373 13.064 4.118 3.247 2.745 4.914 6.604 5.001 11.577v21.043c0 4.202 0.589 7.551 1.769 10.047v0.736h-10.694 0.025zm-11.514-7.564c2.046 0.007 4.059-0.512 5.845-1.509 1.739-0.92 3.171-2.33 4.118-4.054v-8.783h-5.651c-3.88 0-6.798 0.675-8.753 2.026-1.914 1.264-3.032 3.443-2.942 5.735 0 2.012 0.669 3.614 2.005 4.808 1.336 1.193 3.129 1.791 5.378 1.794v-0.017z" fill-rule="nonzero"/><path d="m246.52 287.26c0-7.186 1.667-12.957 5.001-17.313 3.333-4.356 7.8-6.534 13.4-6.534 4.944 0 8.94 1.724 11.988 5.173v-23.888h10.48v66.236h-9.488l-0.509-4.812c-3.134 3.796-7.317 5.694-12.547 5.694-5.463 0-9.883-2.199-13.261-6.597-3.379-4.398-5.067-10.385-5.064-17.959zm10.48 0.907c0 4.743 0.913 8.443 2.74 11.102 1.826 2.658 4.42 3.988 7.782 3.988 4.283 0 7.416-1.912 9.4-5.736v-19.922c-1.928-3.737-5.033-5.605-9.316-5.605-3.393 0-6.009 1.343-7.85 4.029-1.84 2.687-2.76 6.733-2.76 12.14l0.004 0.004z" fill-rule="nonzero"/><path d="m308.2 264.28l0.303 4.874c3.277-3.824 7.759-5.736 13.446-5.736 6.239 0 10.508 2.381 12.808 7.144 3.392-4.763 8.164-7.144 14.316-7.144 5.146 0 8.977 1.423 11.492 4.269 2.516 2.847 3.802 7.049 3.858 12.606v30.675h-10.48v-30.389c0-2.961-0.647-5.132-1.941-6.513s-3.436-2.072-6.425-2.072c-2.387 0-4.335 0.641-5.845 1.921-1.538 1.325-2.642 3.082-3.168 5.042l0.042 31.994h-10.48v-30.716c-0.146-5.491-2.947-8.236-8.404-8.236-4.202 0-7.177 1.71-8.925 5.13v33.805h-10.48v-46.642h9.883v-0.012z" fill-rule="nonzero"/><path d="m375.19 252.12c-0.048-1.497 0.503-2.953 1.53-4.042 1.02-1.073 2.479-1.61 4.378-1.61 1.9 0 3.373 0.538 4.421 1.614 1.039 1.084 1.598 2.542 1.55 4.042 0.044 1.48-0.516 2.916-1.55 3.975-1.034 1.056-2.5 1.585-4.4 1.585-1.899 0-3.358-0.529-4.378-1.585-1.032-1.062-1.591-2.498-1.551-3.979zm11.127 58.828h-10.463v-46.642h10.48v46.642h-0.017z" fill-rule="nonzero"/><path d="m407.45 264.28l0.302 5.391c3.449-4.169 7.977-6.253 13.585-6.253 9.715 0 14.66 5.562 14.833 16.686v30.83h-10.479v-30.225c0-2.961-0.64-5.153-1.921-6.576-1.28-1.423-3.371-2.134-6.273-2.134-4.225 0-7.372 1.912-9.442 5.735v33.196h-10.48v-46.642h9.875v-0.008z" fill-rule="nonzero"/></svg>
