<?xml version="1.0" encoding="UTF-8" standalone="no"?><!DOCTYPE svg PUBLIC "-//W3C//DTD SVG 1.1//EN" "http://www.w3.org/Graphics/SVG/1.1/DTD/svg11.dtd"><svg width="100%" height="100%" viewBox="0 0 275 275" version="1.1" xmlns="http://www.w3.org/2000/svg" xmlns:xlink="http://www.w3.org/1999/xlink" xml:space="preserve" xmlns:serif="http://www.serif.com/" style="fill-rule:evenodd;clip-rule:evenodd;stroke-linejoin:round;stroke-miterlimit:1.41421;"><g id="newtodenmark"><path id="new-to" d="M22.01,149.386l0,-9.002c0,-5.386 -3.232,-8.41 -7.263,-8.41c-2.155,0 -3.893,0.869 -5.63,2.572l-0.279,-2.329l-3.788,0l0,17.169l4.206,0l0,-8.758c0,-2.607 1.772,-4.796 4.378,-4.796c2.711,0 4.136,1.981 4.136,4.587l0,8.967l4.24,0Zm20.711,-7.055l-13.38,0c0.278,2.12 2.12,3.649 5.109,3.649c1.564,0 3.614,-0.591 4.587,-1.599l2.711,2.676c-1.807,1.877 -4.761,2.78 -7.368,2.78c-5.908,0 -9.418,-3.649 -9.418,-9.14c0,-5.213 3.545,-8.966 9.106,-8.966c5.734,0 9.314,3.545 8.653,10.6Zm-13.31,-3.511l9.244,0c-0.278,-2.224 -2.016,-3.336 -4.448,-3.336c-2.294,0 -4.171,1.112 -4.796,3.336Zm27.685,-6.603l-3.719,12.894l-3.927,-12.894l-4.727,0l6.013,17.238l4.935,0l1.772,-5.074l1.529,-5.734l1.53,5.734l1.772,5.074l4.935,0l5.978,-17.238l-4.692,0l-3.927,12.894l-3.754,-12.894l-3.718,0Zm28.563,-4.344l0,4.414l-3.197,0l0,3.649l3.197,0l0,7.402c0,4.275 2.433,6.395 6.152,6.256c1.286,-0.035 2.293,-0.243 3.51,-0.73l-1.182,-3.614c-0.625,0.313 -1.39,0.521 -2.05,0.521c-1.321,0 -2.225,-0.799 -2.225,-2.433l0,-7.402l4.762,0l0,-3.649l-4.727,0l0,-4.866l-4.24,0.452Zm20.26,4.032c5.456,0 8.966,4.031 8.966,8.931c0,4.935 -3.371,8.932 -8.932,8.932c-5.56,0 -8.896,-3.997 -8.896,-8.932c0,-4.9 3.405,-8.931 8.862,-8.931Zm0.034,3.857c-3.058,0 -4.657,2.502 -4.657,5.074c0,2.607 1.564,5.039 4.657,5.039c3.093,0 4.657,-2.432 4.657,-5.039c0,-2.572 -1.807,-5.074 -4.657,-5.074Z" style="fill:#1a5e76;"/><path id="denmark" d="M133.167,135.797c-2.71,0 -4.865,1.911 -4.865,5.004c0,2.989 2.155,5.04 4.865,5.04c2.676,0 4.97,-1.946 4.97,-5.04c0,-2.988 -2.294,-5.004 -4.97,-5.004Zm5.248,-10.704l4.24,0l0,24.293l-3.962,0l-0.278,-2.364c-1.32,2.051 -3.44,2.746 -5.526,2.746c-5.039,0 -8.827,-3.336 -8.827,-8.967c0,-5.908 3.719,-8.966 8.723,-8.966c1.807,0 4.622,0.973 5.63,2.746l0,-9.488Zm25.079,17.238l-13.38,0c0.278,2.12 2.12,3.649 5.108,3.649c1.564,0 3.615,-0.591 4.588,-1.599l2.711,2.676c-1.808,1.877 -4.762,2.78 -7.368,2.78c-5.908,0 -9.418,-3.649 -9.418,-9.14c0,-5.213 3.545,-8.966 9.105,-8.966c5.734,0 9.314,3.545 8.654,10.6Zm-13.311,-3.511l9.245,0c-0.278,-2.224 -2.016,-3.336 -4.449,-3.336c-2.294,0 -4.17,1.112 -4.796,3.336Zm33.501,10.566l0,-9.002c0,-5.386 -3.232,-8.41 -7.264,-8.41c-2.155,0 -3.892,0.869 -5.63,2.572l-0.278,-2.329l-3.788,0l0,17.169l4.205,0l0,-8.758c0,-2.607 1.772,-4.796 4.379,-4.796c2.711,0 4.136,1.981 4.136,4.587l0,8.967l4.24,0Zm18.969,0l0,-9.175c0,-2.259 1.425,-4.24 3.719,-4.24c2.294,0 3.232,1.911 3.232,4.17l0,9.245l4.24,0l0,-9.245c0,-5.143 -2.398,-8.132 -7.264,-8.132c-2.224,0 -4.205,0.695 -5.734,3.128c-0.973,-2.364 -3.023,-3.198 -5.074,-3.198c-1.633,0 -3.614,0.626 -4.518,2.364l-0.313,-2.086l-3.927,0l0,17.169l4.24,0l0,-9.175c0,-2.259 1.355,-4.31 3.649,-4.31c2.329,0 3.51,2.051 3.51,4.31l0,9.175l4.24,0Zm28.342,-14.771l0.139,-2.363l4.066,0l0,17.134l-3.997,0l-0.208,-2.503c-0.973,2.016 -3.649,2.989 -5.561,3.024c-5.074,0.035 -8.827,-3.093 -8.827,-9.106c0,-5.908 3.927,-9.001 8.931,-8.966c2.294,0 4.484,1.077 5.457,2.78Zm-5.074,1.008c-2.815,0 -5.074,1.912 -5.074,5.178c0,3.267 2.259,5.213 5.074,5.213c6.672,0 6.672,-10.391 0,-10.391Zm12.926,-3.371l0,17.134l4.24,0l0,-9.036c0,-3.163 2.051,-4.345 4.275,-4.345c1.39,0 2.189,0.383 3.058,1.113l1.912,-3.684c-0.939,-0.939 -2.642,-1.634 -4.414,-1.634c-1.738,0 -3.51,0.313 -4.831,2.433l-0.313,-1.981l-3.927,0Zm15.047,-7.159l0,24.293l4.239,0l0,-7.75l6.708,7.75l5.109,0l0,-0.313l-7.959,-8.758l6.986,-7.82l0,-0.243l-5.074,0l-5.77,6.881l0,-14.04l-4.239,0Z" style="fill:#f04450;"/></g></svg>