<?xml version="1.0" encoding="UTF-8" standalone="no"?>
<!DOCTYPE svg  PUBLIC '-//W3C//DTD SVG 1.1//EN'  'http://www.w3.org/Graphics/SVG/1.1/DTD/svg11.dtd'>
<svg xmlns="http://www.w3.org/2000/svg" fill-rule="evenodd" xml:space="preserve" height="100%" width="100%" version="1.1" stroke-miterlimit="1.4142" clip-rule="evenodd" xmlns:xlink="http://www.w3.org/1999/xlink" viewBox="0 0 52 52"><path id="__Path_3" fill-rule="nonzero" fill="#33ace2" d="m49.367 37.982c-0.005 6.242-5.143 11.377-11.385 11.377-6.246 0-11.385-5.139-11.385-11.385s5.139-11.385 11.385-11.385c6.245 0 11.385 5.139 11.385 11.385v0.008z"/><path id="__Path_5" d="m30.557 45.227l-4.86 4.867-11.123-11.122-0.285-0.285-0.705-0.705-12.285-12.285 24.398-24.398 24.397 24.398-4.777 4.77" stroke="#000" stroke-width="1.5px" fill="none"/><path id="__Path_6" fill-rule="nonzero" fill="#33ace2" d="m49.367 37.982c-0.005 6.242-5.143 11.377-11.385 11.377-6.246 0-11.385-5.139-11.385-11.385s5.139-11.385 11.385-11.385c6.245 0 11.385 5.139 11.385 11.385v0.008z"/><path d="m29.049 15.414l-13.98 13.98" fill-rule="nonzero" stroke="#000" stroke-miterlimit="4" stroke-width="1.5px"/><path d="m32.004 18.369l-13.98 13.98" fill-rule="nonzero" stroke="#000" stroke-miterlimit="4" stroke-width="1.5px"/></svg>
